<svg width="16" height="16" viewBox="0 0 16 16" fill="none" xmlns="http://www.w3.org/2000/svg">
<path d="M7.6875 1C10.2318 1 11.9596 1.57971 13.0342 2.69434C14.1066 3.80706 14.3759 5.297 14.376 6.75C14.376 8.20306 14.1066 9.69294 13.0342 10.8057C11.9876 11.8912 10.3214 12.4677 7.88477 12.4971L7.64844 14.0996V14.1006C7.52922 14.9023 6.52682 15.1936 5.99414 14.5879L3.35449 11.584C1.4529 10.4949 1 8.61048 1 6.75C1.00004 5.29704 1.2695 3.80712 2.3418 2.69434C3.34892 1.64932 4.92987 1.07464 7.21973 1.00684L7.6875 1ZM7.25879 2.50586C5.18019 2.5678 4.04971 3.08389 3.42188 3.73535C2.75045 4.43222 2.50004 5.44196 2.5 6.75C2.5 8.43264 2.90512 9.64439 4.18848 10.333L4.30762 10.3975L4.39746 10.499L6.33691 12.7051L6.49414 11.6338L6.5918 10.9736L7.25879 10.9932L7.6875 11C10.042 11 11.2841 10.4596 11.9541 9.76465C12.6257 9.06778 12.876 8.058 12.876 6.75C12.8759 5.44211 12.6257 4.43225 11.9541 3.73535C11.2841 3.04039 10.0418 2.5 7.6875 2.5L7.25879 2.50586Z" fill="#383E40"/>
<path d="M7.6875 1C10.2318 1 11.9596 1.57971 13.0342 2.69434C14.1066 3.80706 14.3759 5.297 14.376 6.75C14.376 8.20306 14.1066 9.69294 13.0342 10.8057C11.9876 11.8912 10.3214 12.4677 7.88477 12.4971L7.64844 14.0996V14.1006C7.52922 14.9023 6.52682 15.1936 5.99414 14.5879L3.35449 11.584C1.4529 10.4949 1 8.61048 1 6.75C1.00004 5.29704 1.2695 3.80712 2.3418 2.69434C3.34892 1.64932 4.92987 1.07464 7.21973 1.00684L7.6875 1ZM7.25879 2.50586C5.18019 2.5678 4.04971 3.08389 3.42188 3.73535C2.75045 4.43222 2.50004 5.44196 2.5 6.75C2.5 8.43264 2.90512 9.64439 4.18848 10.333L4.30762 10.3975L4.39746 10.499L6.33691 12.7051L6.49414 11.6338L6.5918 10.9736L7.25879 10.9932L7.6875 11C10.042 11 11.2841 10.4596 11.9541 9.76465C12.6257 9.06778 12.876 8.058 12.876 6.75C12.8759 5.44211 12.6257 4.43225 11.9541 3.73535C11.2841 3.04039 10.0418 2.5 7.6875 2.5L7.25879 2.50586Z" fill="#303446"/>
<path d="M7.6875 1C10.2318 1 11.9596 1.57971 13.0342 2.69434C14.1066 3.80706 14.3759 5.297 14.376 6.75C14.376 8.20306 14.1066 9.69294 13.0342 10.8057C11.9876 11.8912 10.3214 12.4677 7.88477 12.4971L7.64844 14.0996V14.1006C7.52922 14.9023 6.52682 15.1936 5.99414 14.5879L3.35449 11.584C1.4529 10.4949 1 8.61048 1 6.75C1.00004 5.29704 1.2695 3.80712 2.3418 2.69434C3.34892 1.64932 4.92987 1.07464 7.21973 1.00684L7.6875 1ZM7.25879 2.50586C5.18019 2.5678 4.04971 3.08389 3.42188 3.73535C2.75045 4.43222 2.50004 5.44196 2.5 6.75C2.5 8.43264 2.90512 9.64439 4.18848 10.333L4.30762 10.3975L4.39746 10.499L6.33691 12.7051L6.49414 11.6338L6.5918 10.9736L7.25879 10.9932L7.6875 11C10.042 11 11.2841 10.4596 11.9541 9.76465C12.6257 9.06778 12.876 8.058 12.876 6.75C12.8759 5.44211 12.6257 4.43225 11.9541 3.73535C11.2841 3.04039 10.0418 2.5 7.6875 2.5L7.25879 2.50586Z" fill="#1A1A1A"/>
</svg>
