<svg width="17" height="16" viewBox="0 0 17 16" fill="none" xmlns="http://www.w3.org/2000/svg">
<g opacity="0.7">
<path d="M6.6875 0.583008C9.23176 0.583008 10.9596 1.16272 12.0342 2.27734C13.0516 3.33302 13.3425 4.72831 13.3701 6.10938C14.2517 6.331 14.9117 6.74533 15.3555 7.35156C15.8844 8.07427 16.0146 8.94933 16.0146 9.76074C16.0146 10.9366 15.7292 12.2152 14.4658 12.9688C14.3664 13.0868 14.2614 13.2188 14.1445 13.3682C14.0047 13.5469 13.8473 13.7486 13.6797 13.9424C13.3514 14.3219 12.9217 14.7483 12.3604 14.9854C11.8507 15.2005 11.3287 14.8785 11.2119 14.4072L11.0469 13.7412C9.86395 13.6758 8.51044 13.2865 7.73535 12.0449C7.46296 12.0644 7.17943 12.0765 6.88477 12.0801L6.64844 13.6826V13.6836C6.52922 14.4853 5.52682 14.7766 4.99414 14.1709L2.35449 11.167C0.452904 10.0779 0 8.19348 0 6.33301C4.29691e-05 4.88004 0.269498 3.39012 1.3418 2.27734C2.34892 1.23233 3.92987 0.657647 6.21973 0.589844L6.6875 0.583008ZM13.2861 7.65039C13.1384 8.65292 12.7821 9.61261 12.0342 10.3887C11.417 11.0288 10.5839 11.4893 9.50488 11.7676C10.035 12.139 10.7756 12.275 11.6133 12.25L12.2188 12.2324L12.3643 12.8203L12.4297 13.0859C12.4669 13.0457 12.5073 13.0055 12.5459 12.9609C12.6853 12.7998 12.8198 12.6275 12.9639 12.4434C13.1031 12.2655 13.2544 12.0715 13.4092 11.8955L13.499 11.7939L13.6191 11.7295C14.2768 11.3776 14.5146 10.7621 14.5146 9.76074C14.5146 9.07879 14.399 8.58371 14.1455 8.2373C13.985 8.018 13.7272 7.80547 13.2861 7.65039ZM6.25879 2.08887C4.18019 2.1508 3.04971 2.6669 2.42188 3.31836C1.75045 4.01522 1.50004 5.02497 1.5 6.33301C1.5 8.01564 1.90512 9.22739 3.18848 9.91602L3.30762 9.98047L3.39746 10.082L5.33691 12.2881L5.49414 11.2168L5.5918 10.5566L6.25879 10.5762L6.6875 10.583C9.04195 10.583 10.2841 10.0426 10.9541 9.34766C11.6257 8.65079 11.876 7.64101 11.876 6.33301C11.8759 5.02512 11.6257 4.01526 10.9541 3.31836C10.2841 2.6234 9.04183 2.08301 6.6875 2.08301L6.25879 2.08887Z" fill="#383E40"/>
<path d="M6.6875 0.583008C9.23176 0.583008 10.9596 1.16272 12.0342 2.27734C13.0516 3.33302 13.3425 4.72831 13.3701 6.10938C14.2517 6.331 14.9117 6.74533 15.3555 7.35156C15.8844 8.07427 16.0146 8.94933 16.0146 9.76074C16.0146 10.9366 15.7292 12.2152 14.4658 12.9688C14.3664 13.0868 14.2614 13.2188 14.1445 13.3682C14.0047 13.5469 13.8473 13.7486 13.6797 13.9424C13.3514 14.3219 12.9217 14.7483 12.3604 14.9854C11.8507 15.2005 11.3287 14.8785 11.2119 14.4072L11.0469 13.7412C9.86395 13.6758 8.51044 13.2865 7.73535 12.0449C7.46296 12.0644 7.17943 12.0765 6.88477 12.0801L6.64844 13.6826V13.6836C6.52922 14.4853 5.52682 14.7766 4.99414 14.1709L2.35449 11.167C0.452904 10.0779 0 8.19348 0 6.33301C4.29691e-05 4.88004 0.269498 3.39012 1.3418 2.27734C2.34892 1.23233 3.92987 0.657647 6.21973 0.589844L6.6875 0.583008ZM13.2861 7.65039C13.1384 8.65292 12.7821 9.61261 12.0342 10.3887C11.417 11.0288 10.5839 11.4893 9.50488 11.7676C10.035 12.139 10.7756 12.275 11.6133 12.25L12.2188 12.2324L12.3643 12.8203L12.4297 13.0859C12.4669 13.0457 12.5073 13.0055 12.5459 12.9609C12.6853 12.7998 12.8198 12.6275 12.9639 12.4434C13.1031 12.2655 13.2544 12.0715 13.4092 11.8955L13.499 11.7939L13.6191 11.7295C14.2768 11.3776 14.5146 10.7621 14.5146 9.76074C14.5146 9.07879 14.399 8.58371 14.1455 8.2373C13.985 8.018 13.7272 7.80547 13.2861 7.65039ZM6.25879 2.08887C4.18019 2.1508 3.04971 2.6669 2.42188 3.31836C1.75045 4.01522 1.50004 5.02497 1.5 6.33301C1.5 8.01564 1.90512 9.22739 3.18848 9.91602L3.30762 9.98047L3.39746 10.082L5.33691 12.2881L5.49414 11.2168L5.5918 10.5566L6.25879 10.5762L6.6875 10.583C9.04195 10.583 10.2841 10.0426 10.9541 9.34766C11.6257 8.65079 11.876 7.64101 11.876 6.33301C11.8759 5.02512 11.6257 4.01526 10.9541 3.31836C10.2841 2.6234 9.04183 2.08301 6.6875 2.08301L6.25879 2.08887Z" fill="#303446"/>
<path d="M6.6875 0.583008C9.23176 0.583008 10.9596 1.16272 12.0342 2.27734C13.0516 3.33302 13.3425 4.72831 13.3701 6.10938C14.2517 6.331 14.9117 6.74533 15.3555 7.35156C15.8844 8.07427 16.0146 8.94933 16.0146 9.76074C16.0146 10.9366 15.7292 12.2152 14.4658 12.9688C14.3664 13.0868 14.2614 13.2188 14.1445 13.3682C14.0047 13.5469 13.8473 13.7486 13.6797 13.9424C13.3514 14.3219 12.9217 14.7483 12.3604 14.9854C11.8507 15.2005 11.3287 14.8785 11.2119 14.4072L11.0469 13.7412C9.86395 13.6758 8.51044 13.2865 7.73535 12.0449C7.46296 12.0644 7.17943 12.0765 6.88477 12.0801L6.64844 13.6826V13.6836C6.52922 14.4853 5.52682 14.7766 4.99414 14.1709L2.35449 11.167C0.452904 10.0779 0 8.19348 0 6.33301C4.29691e-05 4.88004 0.269498 3.39012 1.3418 2.27734C2.34892 1.23233 3.92987 0.657647 6.21973 0.589844L6.6875 0.583008ZM13.2861 7.65039C13.1384 8.65292 12.7821 9.61261 12.0342 10.3887C11.417 11.0288 10.5839 11.4893 9.50488 11.7676C10.035 12.139 10.7756 12.275 11.6133 12.25L12.2188 12.2324L12.3643 12.8203L12.4297 13.0859C12.4669 13.0457 12.5073 13.0055 12.5459 12.9609C12.6853 12.7998 12.8198 12.6275 12.9639 12.4434C13.1031 12.2655 13.2544 12.0715 13.4092 11.8955L13.499 11.7939L13.6191 11.7295C14.2768 11.3776 14.5146 10.7621 14.5146 9.76074C14.5146 9.07879 14.399 8.58371 14.1455 8.2373C13.985 8.018 13.7272 7.80547 13.2861 7.65039ZM6.25879 2.08887C4.18019 2.1508 3.04971 2.6669 2.42188 3.31836C1.75045 4.01522 1.50004 5.02497 1.5 6.33301C1.5 8.01564 1.90512 9.22739 3.18848 9.91602L3.30762 9.98047L3.39746 10.082L5.33691 12.2881L5.49414 11.2168L5.5918 10.5566L6.25879 10.5762L6.6875 10.583C9.04195 10.583 10.2841 10.0426 10.9541 9.34766C11.6257 8.65079 11.876 7.64101 11.876 6.33301C11.8759 5.02512 11.6257 4.01526 10.9541 3.31836C10.2841 2.6234 9.04183 2.08301 6.6875 2.08301L6.25879 2.08887Z" fill="#1A1A1A"/>
</g>
</svg>
