<svg width="16" height="16" viewBox="0 0 16 16" fill="none" xmlns="http://www.w3.org/2000/svg">
<path d="M14 0C15.1046 6.19647e-08 16 0.895431 16 2V14C16 15.1046 15.1046 16 14 16H8.75488V16.0049H7.25488V16H2C0.895431 16 0 15.1046 0 14V2C1.96596e-08 0.89543 0.89543 -4.18317e-08 2 0H14ZM8.75488 14.5H14C14.2761 14.5 14.5 14.2761 14.5 14V8.75H8.75488V14.5ZM1.5 14C1.5 14.2761 1.72386 14.5 2 14.5H7.25488V8.75H1.5V14ZM8.75488 7.25H14.5V2C14.5 1.72386 14.2761 1.5 14 1.5H8.75488V7.25ZM2 1.5C1.72386 1.5 1.5 1.72386 1.5 2V7.25H7.25488V1.5H2Z" fill="#383E40"/>
<path d="M14 0C15.1046 6.19647e-08 16 0.895431 16 2V14C16 15.1046 15.1046 16 14 16H8.75488V16.0049H7.25488V16H2C0.895431 16 0 15.1046 0 14V2C1.96596e-08 0.89543 0.89543 -4.18317e-08 2 0H14ZM8.75488 14.5H14C14.2761 14.5 14.5 14.2761 14.5 14V8.75H8.75488V14.5ZM1.5 14C1.5 14.2761 1.72386 14.5 2 14.5H7.25488V8.75H1.5V14ZM8.75488 7.25H14.5V2C14.5 1.72386 14.2761 1.5 14 1.5H8.75488V7.25ZM2 1.5C1.72386 1.5 1.5 1.72386 1.5 2V7.25H7.25488V1.5H2Z" fill="#303446"/>
<path d="M14 0C15.1046 6.19647e-08 16 0.895431 16 2V14C16 15.1046 15.1046 16 14 16H8.75488V16.0049H7.25488V16H2C0.895431 16 0 15.1046 0 14V2C1.96596e-08 0.89543 0.89543 -4.18317e-08 2 0H14ZM8.75488 14.5H14C14.2761 14.5 14.5 14.2761 14.5 14V8.75H8.75488V14.5ZM1.5 14C1.5 14.2761 1.72386 14.5 2 14.5H7.25488V8.75H1.5V14ZM8.75488 7.25H14.5V2C14.5 1.72386 14.2761 1.5 14 1.5H8.75488V7.25ZM2 1.5C1.72386 1.5 1.5 1.72386 1.5 2V7.25H7.25488V1.5H2Z" fill="#1A1A1A"/>
</svg>
