<svg width="12" height="12" viewBox="0 0 12 12" fill="none" xmlns="http://www.w3.org/2000/svg">
<path d="M6 0C9.3136 0 12 2.68659 12 6C12 9.31341 9.3136 12 6 12C2.68589 11.9998 1.31439e-07 9.3133 0 6C0 2.6867 2.68589 0.000180715 6 0ZM6 1.5C3.51434 1.50018 1.5 3.5151 1.5 6C1.5 8.4849 3.51434 10.4998 6 10.5C8.48503 10.5 10.5 8.48512 10.5 6C10.5 3.51488 8.48503 1.5 6 1.5ZM6.75 9H5.25V5.5H6.75V9ZM6.75 4.5H5.25V3H6.75V4.5Z" fill="#383E40"/>
<path d="M6 0C9.3136 0 12 2.68659 12 6C12 9.31341 9.3136 12 6 12C2.68589 11.9998 1.31439e-07 9.3133 0 6C0 2.6867 2.68589 0.000180715 6 0ZM6 1.5C3.51434 1.50018 1.5 3.5151 1.5 6C1.5 8.4849 3.51434 10.4998 6 10.5C8.48503 10.5 10.5 8.48512 10.5 6C10.5 3.51488 8.48503 1.5 6 1.5ZM6.75 9H5.25V5.5H6.75V9ZM6.75 4.5H5.25V3H6.75V4.5Z" fill="#303446"/>
<path d="M6 0C9.3136 0 12 2.68659 12 6C12 9.31341 9.3136 12 6 12C2.68589 11.9998 1.31439e-07 9.3133 0 6C0 2.6867 2.68589 0.000180715 6 0ZM6 1.5C3.51434 1.50018 1.5 3.5151 1.5 6C1.5 8.4849 3.51434 10.4998 6 10.5C8.48503 10.5 10.5 8.48512 10.5 6C10.5 3.51488 8.48503 1.5 6 1.5ZM6.75 9H5.25V5.5H6.75V9ZM6.75 4.5H5.25V3H6.75V4.5Z" fill="#1A1A1A"/>
</svg>
