<svg width="16" height="17" viewBox="0 0 16 17" fill="none" xmlns="http://www.w3.org/2000/svg">
<path d="M4.72727 10.2971L6.18182 9.3L4.72727 8.29707V9.3V10.2971Z" fill="#383E40"/>
<path d="M4.72727 10.2971L6.18182 9.3L4.72727 8.29707V9.3V10.2971Z" fill="#303446"/>
<path d="M4.72727 10.2971L6.18182 9.3L4.72727 8.29707V9.3V10.2971Z" fill="#1A1A1A"/>
<path d="M0 16.5H3.27273M16 16.5H12.7273M3.27273 16.5V0.5H12.7273M3.27273 16.5H9.81818M12.7273 0.5V16.5M12.7273 0.5L9.81818 4.5V16.5M12.7273 16.5H9.81818M0 9.3H4.72727M4.72727 9.3V8.29707L6.18182 9.3L4.72727 10.2971V9.3Z" stroke="#383E40"/>
<path d="M0 16.5H3.27273M16 16.5H12.7273M3.27273 16.5V0.5H12.7273M3.27273 16.5H9.81818M12.7273 0.5V16.5M12.7273 0.5L9.81818 4.5V16.5M12.7273 16.5H9.81818M0 9.3H4.72727M4.72727 9.3V8.29707L6.18182 9.3L4.72727 10.2971V9.3Z" stroke="#303446"/>
<path d="M0 16.5H3.27273M16 16.5H12.7273M3.27273 16.5V0.5H12.7273M3.27273 16.5H9.81818M12.7273 0.5V16.5M12.7273 0.5L9.81818 4.5V16.5M12.7273 16.5H9.81818M0 9.3H4.72727M4.72727 9.3V8.29707L6.18182 9.3L4.72727 10.2971V9.3Z" stroke="#1A1A1A"/>
</svg>
