<svg width="16" height="16" viewBox="0 0 16 16" fill="none" xmlns="http://www.w3.org/2000/svg">
    <path
        d="M2 1H14V12.9345C14 13.7704 13.0354 14.2374 12.3798 13.719L8.49339 10.6462C8.12308 10.3534 7.59845 10.3594 7.235 10.6607L3.63817 13.6421C2.98637 14.1824 2 13.7188 2 12.8722V1Z"
        fill="white" />
    <g opacity="0.6">
        <g opacity="0.48">
            <path d="M13 2V12.9346L9.11328 9.86133C8.37268 9.27607 7.32345 9.28821 6.59668 9.89062L3 12.8721V2H13Z"
                stroke="#383E40" stroke-width="2" />
            <path d="M13 2V12.9346L9.11328 9.86133C8.37268 9.27607 7.32345 9.28821 6.59668 9.89062L3 12.8721V2H13Z"
                stroke="#303446" stroke-width="2" />
            <path d="M13 2V12.9346L9.11328 9.86133C8.37268 9.27607 7.32345 9.28821 6.59668 9.89062L3 12.8721V2H13Z"
                stroke="#1A1A1A" stroke-width="2" />
        </g>
    </g>
</svg>