<svg width="16" height="16" viewBox="0 0 16 16" fill="#20815C" xmlns="http://www.w3.org/2000/svg">
    <path
        d="M2 3C2 1.89543 2.89543 1 4 1H12C13.1046 1 14 1.89543 14 3V12.9345C14 13.7704 13.0354 14.2374 12.3798 13.719L8.49339 10.6462C8.12308 10.3534 7.59845 10.3594 7.235 10.6607L3.63817 13.6421C2.98637 14.1824 2 13.7188 2 12.8722V3Z"
        stroke="#20815C" stroke-width="1.5" stroke-linecap="round" />
    <path
        d="M2 3C2 1.89543 2.89543 1 4 1H12C13.1046 1 14 1.89543 14 3V12.9345C14 13.7704 13.0354 14.2374 12.3798 13.719L8.49339 10.6462C8.12308 10.3534 7.59845 10.3594 7.235 10.6607L3.63817 13.6421C2.98637 14.1824 2 13.7188 2 12.8722V3Z"
        stroke="#20815C" stroke-width="1.5" stroke-linecap="round" />
    <path
        d="M2 3C2 1.89543 2.89543 1 4 1H12C13.1046 1 14 1.89543 14 3V12.9345C14 13.7704 13.0354 14.2374 12.3798 13.719L8.49339 10.6462C8.12308 10.3534 7.59845 10.3594 7.235 10.6607L3.63817 13.6421C2.98637 14.1824 2 13.7188 2 12.8722V3Z"
        stroke="#20815C" stroke-width="1.5" stroke-linecap="round" />
</svg>