<svg width="12" height="12" viewBox="0 0 12 12" fill="none" xmlns="http://www.w3.org/2000/svg">
<path d="M10 6.75C10.9665 6.75 11.75 7.5335 11.75 8.5V9.5C11.75 10.4665 10.9665 11.25 10 11.25H9C8.11847 11.25 7.39095 10.5979 7.26953 9.75H0.75V8.25H7.26953C7.39095 7.40205 8.11847 6.75 9 6.75H10ZM9 8.25C8.86193 8.25 8.75 8.36193 8.75 8.5V9.5C8.75 9.63807 8.86193 9.75 9 9.75H10C10.1381 9.75 10.25 9.63807 10.25 9.5V8.5C10.25 8.36193 10.1381 8.25 10 8.25H9ZM3 0.75C3.88153 0.75 4.60905 1.40205 4.73047 2.25H11.25V3.75H4.73047C4.60905 4.59795 3.88153 5.25 3 5.25H2C1.0335 5.25 0.25 4.4665 0.25 3.5V2.5C0.25 1.5335 1.0335 0.75 2 0.75H3ZM2 2.25C1.86193 2.25 1.75 2.36193 1.75 2.5V3.5C1.75 3.63807 1.86193 3.75 2 3.75H3C3.13807 3.75 3.25 3.63807 3.25 3.5V2.5C3.25 2.36193 3.13807 2.25 3 2.25H2Z" fill="#383E40"/>
<path d="M10 6.75C10.9665 6.75 11.75 7.5335 11.75 8.5V9.5C11.75 10.4665 10.9665 11.25 10 11.25H9C8.11847 11.25 7.39095 10.5979 7.26953 9.75H0.75V8.25H7.26953C7.39095 7.40205 8.11847 6.75 9 6.75H10ZM9 8.25C8.86193 8.25 8.75 8.36193 8.75 8.5V9.5C8.75 9.63807 8.86193 9.75 9 9.75H10C10.1381 9.75 10.25 9.63807 10.25 9.5V8.5C10.25 8.36193 10.1381 8.25 10 8.25H9ZM3 0.75C3.88153 0.75 4.60905 1.40205 4.73047 2.25H11.25V3.75H4.73047C4.60905 4.59795 3.88153 5.25 3 5.25H2C1.0335 5.25 0.25 4.4665 0.25 3.5V2.5C0.25 1.5335 1.0335 0.75 2 0.75H3ZM2 2.25C1.86193 2.25 1.75 2.36193 1.75 2.5V3.5C1.75 3.63807 1.86193 3.75 2 3.75H3C3.13807 3.75 3.25 3.63807 3.25 3.5V2.5C3.25 2.36193 3.13807 2.25 3 2.25H2Z" fill="#303446"/>
<path d="M10 6.75C10.9665 6.75 11.75 7.5335 11.75 8.5V9.5C11.75 10.4665 10.9665 11.25 10 11.25H9C8.11847 11.25 7.39095 10.5979 7.26953 9.75H0.75V8.25H7.26953C7.39095 7.40205 8.11847 6.75 9 6.75H10ZM9 8.25C8.86193 8.25 8.75 8.36193 8.75 8.5V9.5C8.75 9.63807 8.86193 9.75 9 9.75H10C10.1381 9.75 10.25 9.63807 10.25 9.5V8.5C10.25 8.36193 10.1381 8.25 10 8.25H9ZM3 0.75C3.88153 0.75 4.60905 1.40205 4.73047 2.25H11.25V3.75H4.73047C4.60905 4.59795 3.88153 5.25 3 5.25H2C1.0335 5.25 0.25 4.4665 0.25 3.5V2.5C0.25 1.5335 1.0335 0.75 2 0.75H3ZM2 2.25C1.86193 2.25 1.75 2.36193 1.75 2.5V3.5C1.75 3.63807 1.86193 3.75 2 3.75H3C3.13807 3.75 3.25 3.63807 3.25 3.5V2.5C3.25 2.36193 3.13807 2.25 3 2.25H2Z" fill="#1A1A1A"/>
</svg>
