<svg width="16" height="16" viewBox="0 0 16 16" fill="none" xmlns="http://www.w3.org/2000/svg">
<path d="M8 2.50195C10.4 -0.398809 16 1.03107 16 5.67969C15.9999 10.3282 12 12.5688 8 15C4.00003 12.5688 7.00392e-05 10.3282 0 5.67969C0 1.03107 5.6 -0.398479 8 2.50195Z" fill="#383E40"/>
<path d="M8 2.50195C10.4 -0.398809 16 1.03107 16 5.67969C15.9999 10.3282 12 12.5688 8 15C4.00003 12.5688 7.00392e-05 10.3282 0 5.67969C0 1.03107 5.6 -0.398479 8 2.50195Z" fill="#303446"/>
<path d="M8 2.50195C10.4 -0.398809 16 1.03107 16 5.67969C15.9999 10.3282 12 12.5688 8 15C4.00003 12.5688 7.00392e-05 10.3282 0 5.67969C0 1.03107 5.6 -0.398479 8 2.50195Z" fill="#1A1A1A"/>
</svg>
