<svg width="12" height="12" viewBox="0 0 12 12" fill="none" xmlns="http://www.w3.org/2000/svg">
<path d="M6 1.87744C7.8 -0.298127 12 0.773805 12 4.26025C11.9999 7.74654 8.99993 9.42714 6 11.2505L4.88086 10.5698C2.29691 8.97902 0.000130548 7.31078 0 4.26025C1.2449e-05 0.773805 4.2 -0.297879 6 1.87744ZM9.19336 2.36572C8.39532 2.0955 7.58803 2.31045 7.15527 2.8335L6 4.22998L4.84473 2.8335C4.41199 2.31053 3.6047 2.09554 2.80664 2.36572C2.07819 2.61253 1.50001 3.22357 1.5 4.26025C1.50007 5.49416 2.00231 6.41806 2.91602 7.29834C3.72568 8.07833 4.77588 8.74723 6 9.49365C7.22412 8.74723 8.27432 8.07833 9.08398 7.29834C9.99769 6.41806 10.4999 5.49416 10.5 4.26025C10.5 3.22354 9.92181 2.61255 9.19336 2.36572Z" fill="#383E40"/>
<path d="M6 1.87744C7.8 -0.298127 12 0.773805 12 4.26025C11.9999 7.74654 8.99993 9.42714 6 11.2505L4.88086 10.5698C2.29691 8.97902 0.000130548 7.31078 0 4.26025C1.2449e-05 0.773805 4.2 -0.297879 6 1.87744ZM9.19336 2.36572C8.39532 2.0955 7.58803 2.31045 7.15527 2.8335L6 4.22998L4.84473 2.8335C4.41199 2.31053 3.6047 2.09554 2.80664 2.36572C2.07819 2.61253 1.50001 3.22357 1.5 4.26025C1.50007 5.49416 2.00231 6.41806 2.91602 7.29834C3.72568 8.07833 4.77588 8.74723 6 9.49365C7.22412 8.74723 8.27432 8.07833 9.08398 7.29834C9.99769 6.41806 10.4999 5.49416 10.5 4.26025C10.5 3.22354 9.92181 2.61255 9.19336 2.36572Z" fill="#303446"/>
<path d="M6 1.87744C7.8 -0.298127 12 0.773805 12 4.26025C11.9999 7.74654 8.99993 9.42714 6 11.2505L4.88086 10.5698C2.29691 8.97902 0.000130548 7.31078 0 4.26025C1.2449e-05 0.773805 4.2 -0.297879 6 1.87744ZM9.19336 2.36572C8.39532 2.0955 7.58803 2.31045 7.15527 2.8335L6 4.22998L4.84473 2.8335C4.41199 2.31053 3.6047 2.09554 2.80664 2.36572C2.07819 2.61253 1.50001 3.22357 1.5 4.26025C1.50007 5.49416 2.00231 6.41806 2.91602 7.29834C3.72568 8.07833 4.77588 8.74723 6 9.49365C7.22412 8.74723 8.27432 8.07833 9.08398 7.29834C9.99769 6.41806 10.4999 5.49416 10.5 4.26025C10.5 3.22354 9.92181 2.61255 9.19336 2.36572Z" fill="#1A1A1A"/>
</svg>
