<svg width="16" height="16" viewBox="0 0 16 16" fill="none" xmlns="http://www.w3.org/2000/svg">
<g opacity="0.7" clip-path="url(#clip0_2027_5064)">
<rect x="11.75" y="6.75" width="3.5" height="4.5" rx="1.75" stroke="#383E40" stroke-width="1.5"/>
<rect x="11.75" y="6.75" width="3.5" height="4.5" rx="1.75" stroke="#303446" stroke-width="1.5"/>
<rect x="11.75" y="6.75" width="3.5" height="4.5" rx="1.75" stroke="#1A1A1A" stroke-width="1.5"/>
<path d="M2.5 6.75C3.4665 6.75 4.25 7.5335 4.25 8.5V9.5C4.25 10.4665 3.4665 11.25 2.5 11.25C1.5335 11.25 0.75 10.4665 0.75 9.5V8.5C0.75 7.5335 1.5335 6.75 2.5 6.75Z" stroke="#383E40" stroke-width="1.5"/>
<path d="M2.5 6.75C3.4665 6.75 4.25 7.5335 4.25 8.5V9.5C4.25 10.4665 3.4665 11.25 2.5 11.25C1.5335 11.25 0.75 10.4665 0.75 9.5V8.5C0.75 7.5335 1.5335 6.75 2.5 6.75Z" stroke="#303446" stroke-width="1.5"/>
<path d="M2.5 6.75C3.4665 6.75 4.25 7.5335 4.25 8.5V9.5C4.25 10.4665 3.4665 11.25 2.5 11.25C1.5335 11.25 0.75 10.4665 0.75 9.5V8.5C0.75 7.5335 1.5335 6.75 2.5 6.75Z" stroke="#1A1A1A" stroke-width="1.5"/>
<path d="M14 7C14 2.9146 11.268 1 8 1C4.732 1 2 2.9146 2 7" stroke="#383E40" stroke-width="1.5"/>
<path d="M14 7C14 2.9146 11.268 1 8 1C4.732 1 2 2.9146 2 7" stroke="#303446" stroke-width="1.5"/>
<path d="M14 7C14 2.9146 11.268 1 8 1C4.732 1 2 2.9146 2 7" stroke="#1A1A1A" stroke-width="1.5"/>
<path d="M14 11V12C14 13.6569 12.6569 15 11 15H9" stroke="#383E40" stroke-width="1.5"/>
<path d="M14 11V12C14 13.6569 12.6569 15 11 15H9" stroke="#303446" stroke-width="1.5"/>
<path d="M14 11V12C14 13.6569 12.6569 15 11 15H9" stroke="#1A1A1A" stroke-width="1.5"/>
</g>
<defs>
<clipPath id="clip0_2027_5064">
<rect width="16" height="16" fill="white"/>
</clipPath>
</defs>
</svg>
