<svg width="40" height="16" viewBox="0 0 40 16" fill="none" xmlns="http://www.w3.org/2000/svg">
<g opacity="0.48">
<path d="M0 3.42034V16H6.57692V2.02314L0 3.42034Z" fill="white"/>
<path d="M9.52397 1.39711V9.94313C9.52397 14.2202 13.7771 16 19.024 16H24.6094L22.7562 11.8068H19.7547C17.7378 11.8068 16.1009 11.5086 16.1009 9.47721V7.61356H20.8496V7.49276L19.0497 3.42034H16.1009V0L9.52397 1.39711Z" fill="white"/>
<path d="M29.7 16H27.9177L26.0644 11.8068H28.9692C30.9862 11.8068 32.6231 11.5086 32.6231 9.47721V7.61356H29.725L27.878 3.42035L39.2 3.42034V9.94313C39.2 14.2202 34.9469 16 29.7 16Z" fill="white"/>
</g>
</svg>
