<svg width="300" height="38" viewBox="0 0 300 38" fill="none" xmlns="http://www.w3.org/2000/svg">
<path d="M127.136 5.11538C127.934 5.11539 128.648 5.40796 129.121 5.92873L132.689 9.85588C133.162 10.3767 133.356 11.083 133.227 11.8195L130.723 26.1805C130.594 26.917 130.154 27.6233 129.5 28.1441L124.562 32.0713C123.907 32.592 123.091 32.8846 122.294 32.8846H109.749C108.952 32.8846 108.238 32.592 107.765 32.0713L106.72 30.921C106.247 30.4003 106.053 29.6939 106.181 28.9575L106.323 28.1463H123.681C124.512 28.1463 125.293 27.5247 125.427 26.7578L126.367 21.3692H113.519L114.345 16.6308H122.94C123.738 16.6308 124.451 16.9234 124.925 17.4442L126.063 18.6967C126.301 18.9591 126.819 18.7732 126.884 18.4022L128.132 11.2421C128.266 10.4753 127.701 9.85369 126.871 9.85369H109.513L109.654 9.04253C109.782 8.30605 110.222 7.59973 110.877 7.07896L112.323 5.92873C112.978 5.40796 113.794 5.11539 114.592 5.11538H127.136Z" fill="#383E40"/>
<path d="M127.136 5.11538C127.934 5.11539 128.648 5.40796 129.121 5.92873L132.689 9.85588C133.162 10.3767 133.356 11.083 133.227 11.8195L130.723 26.1805C130.594 26.917 130.154 27.6233 129.5 28.1441L124.562 32.0713C123.907 32.592 123.091 32.8846 122.294 32.8846H109.749C108.952 32.8846 108.238 32.592 107.765 32.0713L106.72 30.921C106.247 30.4003 106.053 29.6939 106.181 28.9575L106.323 28.1463H123.681C124.512 28.1463 125.293 27.5247 125.427 26.7578L126.367 21.3692H113.519L114.345 16.6308H122.94C123.738 16.6308 124.451 16.9234 124.925 17.4442L126.063 18.6967C126.301 18.9591 126.819 18.7732 126.884 18.4022L128.132 11.2421C128.266 10.4753 127.701 9.85369 126.871 9.85369H109.513L109.654 9.04253C109.782 8.30605 110.222 7.59973 110.877 7.07896L112.323 5.92873C112.978 5.40796 113.794 5.11539 114.592 5.11538H127.136Z" fill="#303446"/>
<path d="M127.136 5.11538C127.934 5.11539 128.648 5.40796 129.121 5.92873L132.689 9.85588C133.162 10.3767 133.356 11.083 133.227 11.8195L130.723 26.1805C130.594 26.917 130.154 27.6233 129.5 28.1441L124.562 32.0713C123.907 32.592 123.091 32.8846 122.294 32.8846H109.749C108.952 32.8846 108.238 32.592 107.765 32.0713L106.72 30.921C106.247 30.4003 106.053 29.6939 106.181 28.9575L106.323 28.1463H123.681C124.512 28.1463 125.293 27.5247 125.427 26.7578L126.367 21.3692H113.519L114.345 16.6308H122.94C123.738 16.6308 124.451 16.9234 124.925 17.4442L126.063 18.6967C126.301 18.9591 126.819 18.7732 126.884 18.4022L128.132 11.2421C128.266 10.4753 127.701 9.85369 126.871 9.85369H109.513L109.654 9.04253C109.782 8.30605 110.222 7.59973 110.877 7.07896L112.323 5.92873C112.978 5.40796 113.794 5.11539 114.592 5.11538H127.136Z" fill="#1A1A1A"/>
<path d="M146.116 6.88669C146.051 7.25777 146.505 7.44362 146.835 7.18126L148.409 5.92873C149.064 5.40796 149.88 5.11539 150.678 5.11538H161.461L160.634 9.85369H151.203L147.187 32.8846H141.992L146.008 9.85369H136.577L137.403 5.11538H146.425L146.116 6.88669Z" fill="#383E40"/>
<path d="M146.116 6.88669C146.051 7.25777 146.505 7.44362 146.835 7.18126L148.409 5.92873C149.064 5.40796 149.88 5.11539 150.678 5.11538H161.461L160.634 9.85369H151.203L147.187 32.8846H141.992L146.008 9.85369H136.577L137.403 5.11538H146.425L146.116 6.88669Z" fill="#303446"/>
<path d="M146.116 6.88669C146.051 7.25777 146.505 7.44362 146.835 7.18126L148.409 5.92873C149.064 5.40796 149.88 5.11539 150.678 5.11538H161.461L160.634 9.85369H151.203L147.187 32.8846H141.992L146.008 9.85369H136.577L137.403 5.11538H146.425L146.116 6.88669Z" fill="#1A1A1A"/>
<path d="M184.368 28.9575C184.239 29.6939 183.799 30.4003 183.144 30.921L181.698 32.0713C181.044 32.592 180.228 32.8846 179.43 32.8846H178.487L182.504 9.85369H168.837L164.821 32.8846H159.625L163.783 9.04253C163.912 8.30605 164.351 7.59973 165.006 7.07896L166.452 5.92873C167.107 5.40796 167.923 5.11539 168.721 5.11538H188.525L184.368 28.9575Z" fill="#383E40"/>
<path d="M184.368 28.9575C184.239 29.6939 183.799 30.4003 183.144 30.921L181.698 32.0713C181.044 32.592 180.228 32.8846 179.43 32.8846H178.487L182.504 9.85369H168.837L164.821 32.8846H159.625L163.783 9.04253C163.912 8.30605 164.351 7.59973 165.006 7.07896L166.452 5.92873C167.107 5.40796 167.923 5.11539 168.721 5.11538H188.525L184.368 28.9575Z" fill="#303446"/>
<path d="M184.368 28.9575C184.239 29.6939 183.799 30.4003 183.144 30.921L181.698 32.0713C181.044 32.592 180.228 32.8846 179.43 32.8846H178.487L182.504 9.85369H168.837L164.821 32.8846H159.625L163.783 9.04253C163.912 8.30605 164.351 7.59973 165.006 7.07896L166.452 5.92873C167.107 5.40796 167.923 5.11539 168.721 5.11538H188.525L184.368 28.9575Z" fill="#1A1A1A"/>
<path d="M211.542 28.1463H217.966L217.14 32.8846H199.097L199.923 28.1463H206.347L209.537 9.85369H203.113L203.254 9.04253C203.383 8.30605 203.823 7.59973 204.478 7.07896L205.924 5.92873C206.579 5.40796 207.394 5.11539 208.192 5.11538H215.558L211.542 28.1463Z" fill="#383E40"/>
<path d="M211.542 28.1463H217.966L217.14 32.8846H199.097L199.923 28.1463H206.347L209.537 9.85369H203.113L203.254 9.04253C203.383 8.30605 203.823 7.59973 204.478 7.07896L205.924 5.92873C206.579 5.40796 207.394 5.11539 208.192 5.11538H215.558L211.542 28.1463Z" fill="#303446"/>
<path d="M211.542 28.1463H217.966L217.14 32.8846H199.097L199.923 28.1463H206.347L209.537 9.85369H203.113L203.254 9.04253C203.383 8.30605 203.823 7.59973 204.478 7.07896L205.924 5.92873C206.579 5.40796 207.394 5.11539 208.192 5.11538H215.558L211.542 28.1463Z" fill="#1A1A1A"/>
<path d="M246.746 9.85369H229.81C229.56 9.85369 229.326 10.0402 229.286 10.2702L228.32 15.8065C228.28 16.0366 228.45 16.2231 228.699 16.2231H238.376C239.173 16.2231 239.887 16.5156 240.36 17.0364L243.928 20.9636C244.401 21.4843 244.595 22.1907 244.467 22.9271L243.899 26.1805C243.771 26.917 243.331 27.6233 242.676 28.1441L237.738 32.0713C237.084 32.592 236.268 32.8846 235.47 32.8846H224.4C223.602 32.8846 222.888 32.592 222.415 32.0713L221.37 30.921C220.897 30.4003 220.703 29.6939 220.832 28.9575L220.973 28.1463H236.857C237.688 28.1463 238.469 27.5247 238.603 26.7578L239.372 22.3498C239.506 21.583 238.941 20.9614 238.11 20.9614H226.479C225.681 20.9614 224.968 20.6688 224.494 20.148L223.449 18.9978C222.976 18.477 222.783 17.7707 222.911 17.0342L224.305 9.04253C224.433 8.30605 224.873 7.59973 225.528 7.07896L226.974 5.92873C227.629 5.40796 228.445 5.11539 229.242 5.11538H247.573L246.746 9.85369Z" fill="#383E40"/>
<path d="M246.746 9.85369H229.81C229.56 9.85369 229.326 10.0402 229.286 10.2702L228.32 15.8065C228.28 16.0366 228.45 16.2231 228.699 16.2231H238.376C239.173 16.2231 239.887 16.5156 240.36 17.0364L243.928 20.9636C244.401 21.4843 244.595 22.1907 244.467 22.9271L243.899 26.1805C243.771 26.917 243.331 27.6233 242.676 28.1441L237.738 32.0713C237.084 32.592 236.268 32.8846 235.47 32.8846H224.4C223.602 32.8846 222.888 32.592 222.415 32.0713L221.37 30.921C220.897 30.4003 220.703 29.6939 220.832 28.9575L220.973 28.1463H236.857C237.688 28.1463 238.469 27.5247 238.603 26.7578L239.372 22.3498C239.506 21.583 238.941 20.9614 238.11 20.9614H226.479C225.681 20.9614 224.968 20.6688 224.494 20.148L223.449 18.9978C222.976 18.477 222.783 17.7707 222.911 17.0342L224.305 9.04253C224.433 8.30605 224.873 7.59973 225.528 7.07896L226.974 5.92873C227.629 5.40796 228.445 5.11539 229.242 5.11538H247.573L246.746 9.85369Z" fill="#303446"/>
<path d="M246.746 9.85369H229.81C229.56 9.85369 229.326 10.0402 229.286 10.2702L228.32 15.8065C228.28 16.0366 228.45 16.2231 228.699 16.2231H238.376C239.173 16.2231 239.887 16.5156 240.36 17.0364L243.928 20.9636C244.401 21.4843 244.595 22.1907 244.467 22.9271L243.899 26.1805C243.771 26.917 243.331 27.6233 242.676 28.1441L237.738 32.0713C237.084 32.592 236.268 32.8846 235.47 32.8846H224.4C223.602 32.8846 222.888 32.592 222.415 32.0713L221.37 30.921C220.897 30.4003 220.703 29.6939 220.832 28.9575L220.973 28.1463H236.857C237.688 28.1463 238.469 27.5247 238.603 26.7578L239.372 22.3498C239.506 21.583 238.941 20.9614 238.11 20.9614H226.479C225.681 20.9614 224.968 20.6688 224.494 20.148L223.449 18.9978C222.976 18.477 222.783 17.7707 222.911 17.0342L224.305 9.04253C224.433 8.30605 224.873 7.59973 225.528 7.07896L226.974 5.92873C227.629 5.40796 228.445 5.11539 229.242 5.11538H247.573L246.746 9.85369Z" fill="#1A1A1A"/>
<path d="M266.806 5.11538C267.603 5.11539 268.317 5.40796 268.79 5.92873L272.358 9.85588C272.831 10.3766 273.025 11.083 272.897 11.8195L272.329 15.0728C272.201 15.8093 271.761 16.5156 271.106 17.0364L266.169 20.9636C265.514 21.4843 264.698 21.7769 263.9 21.7769H255.276C254.446 21.7769 253.664 22.3986 253.53 23.1654L252.662 28.1463H270.05L269.223 32.8846H246.64L248.377 22.9271C248.505 22.1907 248.945 21.4843 249.6 20.9636L253.576 17.852C254.231 17.3312 255.047 17.0386 255.844 17.0386H265.288C266.118 17.0386 266.9 16.417 267.033 15.6502L267.802 11.2421C267.936 10.4753 267.371 9.85369 266.541 9.85369H249.753L249.895 9.04253C250.023 8.30605 251.366 7.59973 252.021 7.07896L253.467 5.92873C254.122 5.40796 254.938 5.11539 255.735 5.11538H266.806Z" fill="#383E40"/>
<path d="M266.806 5.11538C267.603 5.11539 268.317 5.40796 268.79 5.92873L272.358 9.85588C272.831 10.3766 273.025 11.083 272.897 11.8195L272.329 15.0728C272.201 15.8093 271.761 16.5156 271.106 17.0364L266.169 20.9636C265.514 21.4843 264.698 21.7769 263.9 21.7769H255.276C254.446 21.7769 253.664 22.3986 253.53 23.1654L252.662 28.1463H270.05L269.223 32.8846H246.64L248.377 22.9271C248.505 22.1907 248.945 21.4843 249.6 20.9636L253.576 17.852C254.231 17.3312 255.047 17.0386 255.844 17.0386H265.288C266.118 17.0386 266.9 16.417 267.033 15.6502L267.802 11.2421C267.936 10.4753 267.371 9.85369 266.541 9.85369H249.753L249.895 9.04253C250.023 8.30605 251.366 7.59973 252.021 7.07896L253.467 5.92873C254.122 5.40796 254.938 5.11539 255.735 5.11538H266.806Z" fill="#303446"/>
<path d="M266.806 5.11538C267.603 5.11539 268.317 5.40796 268.79 5.92873L272.358 9.85588C272.831 10.3766 273.025 11.083 272.897 11.8195L272.329 15.0728C272.201 15.8093 271.761 16.5156 271.106 17.0364L266.169 20.9636C265.514 21.4843 264.698 21.7769 263.9 21.7769H255.276C254.446 21.7769 253.664 22.3986 253.53 23.1654L252.662 28.1463H270.05L269.223 32.8846H246.64L248.377 22.9271C248.505 22.1907 248.945 21.4843 249.6 20.9636L253.576 17.852C254.231 17.3312 255.047 17.0386 255.844 17.0386H265.288C266.118 17.0386 266.9 16.417 267.033 15.6502L267.802 11.2421C267.936 10.4753 267.371 9.85369 266.541 9.85369H249.753L249.895 9.04253C250.023 8.30605 251.366 7.59973 252.021 7.07896L253.467 5.92873C254.122 5.40796 254.938 5.11539 255.735 5.11538H266.806Z" fill="#1A1A1A"/>
<path fill-rule="evenodd" clip-rule="evenodd" d="M293.87 5.11538C294.668 5.11539 295.382 5.40796 295.855 5.92873L299.423 9.85588C299.896 10.3766 300.09 11.083 299.961 11.8195L297.457 26.1805C297.329 26.917 296.889 27.6233 296.234 28.1441L291.296 32.0713C290.641 32.592 289.826 32.8846 289.028 32.8846H279.49C278.693 32.8846 277.979 32.592 277.506 32.0713L273.938 28.1441C273.465 27.6233 273.271 26.917 273.4 26.1805L275.904 11.8195C276.032 11.083 276.472 10.3766 277.127 9.85588L282.065 5.92873C282.719 5.40796 283.535 5.11539 284.333 5.11538H293.87ZM292.161 26.7578C292.027 27.5247 291.246 28.1463 290.415 28.1463H279.756C278.925 28.1463 278.361 27.5247 278.494 26.7578L281.2 11.2421C281.334 10.4753 282.115 9.85369 282.946 9.85369H293.605C294.436 9.85369 295 10.4753 294.867 11.2421L292.161 26.7578Z" fill="#383E40"/>
<path fill-rule="evenodd" clip-rule="evenodd" d="M293.87 5.11538C294.668 5.11539 295.382 5.40796 295.855 5.92873L299.423 9.85588C299.896 10.3766 300.09 11.083 299.961 11.8195L297.457 26.1805C297.329 26.917 296.889 27.6233 296.234 28.1441L291.296 32.0713C290.641 32.592 289.826 32.8846 289.028 32.8846H279.49C278.693 32.8846 277.979 32.592 277.506 32.0713L273.938 28.1441C273.465 27.6233 273.271 26.917 273.4 26.1805L275.904 11.8195C276.032 11.083 276.472 10.3766 277.127 9.85588L282.065 5.92873C282.719 5.40796 283.535 5.11539 284.333 5.11538H293.87ZM292.161 26.7578C292.027 27.5247 291.246 28.1463 290.415 28.1463H279.756C278.925 28.1463 278.361 27.5247 278.494 26.7578L281.2 11.2421C281.334 10.4753 282.115 9.85369 282.946 9.85369H293.605C294.436 9.85369 295 10.4753 294.867 11.2421L292.161 26.7578Z" fill="#303446"/>
<path fill-rule="evenodd" clip-rule="evenodd" d="M293.87 5.11538C294.668 5.11539 295.382 5.40796 295.855 5.92873L299.423 9.85588C299.896 10.3766 300.09 11.083 299.961 11.8195L297.457 26.1805C297.329 26.917 296.889 27.6233 296.234 28.1441L291.296 32.0713C290.641 32.592 289.826 32.8846 289.028 32.8846H279.49C278.693 32.8846 277.979 32.592 277.506 32.0713L273.938 28.1441C273.465 27.6233 273.271 26.917 273.4 26.1805L275.904 11.8195C276.032 11.083 276.472 10.3766 277.127 9.85588L282.065 5.92873C282.719 5.40796 283.535 5.11539 284.333 5.11538H293.87ZM292.161 26.7578C292.027 27.5247 291.246 28.1463 290.415 28.1463H279.756C278.925 28.1463 278.361 27.5247 278.494 26.7578L281.2 11.2421C281.334 10.4753 282.115 9.85369 282.946 9.85369H293.605C294.436 9.85369 295 10.4753 294.867 11.2421L292.161 26.7578Z" fill="#1A1A1A"/>
<path d="M56.7842 0C57.9 4.58288e-06 58.8986 0.400369 59.5604 1.113L64.5507 6.487C65.2125 7.19963 65.4832 8.16618 65.3033 9.17399L64.5668 13.3C64.3794 14.3493 63.2858 15.2 62.124 15.2H58.105L59.5209 7.26799C59.7083 6.21865 58.9183 5.36799 57.7566 5.36799H35.0866C33.9248 5.36799 32.8312 6.21865 32.6439 7.26799L28.4553 30.732C28.268 31.7814 29.0579 32.632 30.2197 32.632H52.8897C54.0514 32.632 55.1451 31.7814 55.3324 30.732L56.5964 23.6507C56.8213 22.3909 57.5911 21.1827 58.7363 20.2919L61.8389 17.7064C62.9841 16.8156 64.4111 16.3152 65.8058 16.3152H68.2356L69.5103 9.17399C69.6903 8.16618 70.306 7.19963 71.2222 6.487L78.1312 1.113C79.0474 0.400369 80.189 4.61286e-06 81.3047 0H87.9762L87.018 5.36799H78.4159C77.2541 5.36799 76.1605 6.21865 75.9732 7.26799L71.7846 30.732C71.5973 31.7814 72.3872 32.632 73.549 32.632H82.1511L81.1929 38H74.5213C73.4056 38 72.407 37.5996 71.7452 36.887L66.7548 31.513C66.0931 30.8004 65.8224 29.8338 66.0023 28.826L67.2772 21.684H63.0701L61.7952 28.826C61.6153 29.8338 60.9995 30.8004 60.0833 31.513L53.1743 36.887C52.2582 37.5996 51.1166 38 50.0008 38H31.1921C30.0763 38 29.0777 37.5996 28.4159 36.887L23.4255 31.513C22.7638 30.8004 22.4931 29.8338 22.673 28.826L23.9479 21.684H19.7408L18.4659 28.826C18.286 29.8338 17.6702 30.8004 16.754 31.513L9.84504 36.887C8.92885 37.5996 7.7873 38 6.67152 38H0L0.95824 32.632H9.56036C10.7221 32.632 11.8157 31.7814 12.0031 30.732L13.2576 23.7044C13.4375 22.6966 14.0533 21.73 14.9695 21.0174L19.309 17.429C20.2252 16.7164 21.3667 16.316 22.4825 16.316H24.9061L26.181 9.17399C26.361 8.16618 26.9767 7.19963 27.8929 6.487L34.8019 1.113C35.7181 0.400369 36.8597 4.62785e-06 37.9754 0H56.7842Z" fill="#383E40"/>
<path d="M56.7842 0C57.9 4.58288e-06 58.8986 0.400369 59.5604 1.113L64.5507 6.487C65.2125 7.19963 65.4832 8.16618 65.3033 9.17399L64.5668 13.3C64.3794 14.3493 63.2858 15.2 62.124 15.2H58.105L59.5209 7.26799C59.7083 6.21865 58.9183 5.36799 57.7566 5.36799H35.0866C33.9248 5.36799 32.8312 6.21865 32.6439 7.26799L28.4553 30.732C28.268 31.7814 29.0579 32.632 30.2197 32.632H52.8897C54.0514 32.632 55.1451 31.7814 55.3324 30.732L56.5964 23.6507C56.8213 22.3909 57.5911 21.1827 58.7363 20.2919L61.8389 17.7064C62.9841 16.8156 64.4111 16.3152 65.8058 16.3152H68.2356L69.5103 9.17399C69.6903 8.16618 70.306 7.19963 71.2222 6.487L78.1312 1.113C79.0474 0.400369 80.189 4.61286e-06 81.3047 0H87.9762L87.018 5.36799H78.4159C77.2541 5.36799 76.1605 6.21865 75.9732 7.26799L71.7846 30.732C71.5973 31.7814 72.3872 32.632 73.549 32.632H82.1511L81.1929 38H74.5213C73.4056 38 72.407 37.5996 71.7452 36.887L66.7548 31.513C66.0931 30.8004 65.8224 29.8338 66.0023 28.826L67.2772 21.684H63.0701L61.7952 28.826C61.6153 29.8338 60.9995 30.8004 60.0833 31.513L53.1743 36.887C52.2582 37.5996 51.1166 38 50.0008 38H31.1921C30.0763 38 29.0777 37.5996 28.4159 36.887L23.4255 31.513C22.7638 30.8004 22.4931 29.8338 22.673 28.826L23.9479 21.684H19.7408L18.4659 28.826C18.286 29.8338 17.6702 30.8004 16.754 31.513L9.84504 36.887C8.92885 37.5996 7.7873 38 6.67152 38H0L0.95824 32.632H9.56036C10.7221 32.632 11.8157 31.7814 12.0031 30.732L13.2576 23.7044C13.4375 22.6966 14.0533 21.73 14.9695 21.0174L19.309 17.429C20.2252 16.7164 21.3667 16.316 22.4825 16.316H24.9061L26.181 9.17399C26.361 8.16618 26.9767 7.19963 27.8929 6.487L34.8019 1.113C35.7181 0.400369 36.8597 4.62785e-06 37.9754 0H56.7842Z" fill="#303446"/>
<path d="M56.7842 0C57.9 4.58288e-06 58.8986 0.400369 59.5604 1.113L64.5507 6.487C65.2125 7.19963 65.4832 8.16618 65.3033 9.17399L64.5668 13.3C64.3794 14.3493 63.2858 15.2 62.124 15.2H58.105L59.5209 7.26799C59.7083 6.21865 58.9183 5.36799 57.7566 5.36799H35.0866C33.9248 5.36799 32.8312 6.21865 32.6439 7.26799L28.4553 30.732C28.268 31.7814 29.0579 32.632 30.2197 32.632H52.8897C54.0514 32.632 55.1451 31.7814 55.3324 30.732L56.5964 23.6507C56.8213 22.3909 57.5911 21.1827 58.7363 20.2919L61.8389 17.7064C62.9841 16.8156 64.4111 16.3152 65.8058 16.3152H68.2356L69.5103 9.17399C69.6903 8.16618 70.306 7.19963 71.2222 6.487L78.1312 1.113C79.0474 0.400369 80.189 4.61286e-06 81.3047 0H87.9762L87.018 5.36799H78.4159C77.2541 5.36799 76.1605 6.21865 75.9732 7.26799L71.7846 30.732C71.5973 31.7814 72.3872 32.632 73.549 32.632H82.1511L81.1929 38H74.5213C73.4056 38 72.407 37.5996 71.7452 36.887L66.7548 31.513C66.0931 30.8004 65.8224 29.8338 66.0023 28.826L67.2772 21.684H63.0701L61.7952 28.826C61.6153 29.8338 60.9995 30.8004 60.0833 31.513L53.1743 36.887C52.2582 37.5996 51.1166 38 50.0008 38H31.1921C30.0763 38 29.0777 37.5996 28.4159 36.887L23.4255 31.513C22.7638 30.8004 22.4931 29.8338 22.673 28.826L23.9479 21.684H19.7408L18.4659 28.826C18.286 29.8338 17.6702 30.8004 16.754 31.513L9.84504 36.887C8.92885 37.5996 7.7873 38 6.67152 38H0L0.95824 32.632H9.56036C10.7221 32.632 11.8157 31.7814 12.0031 30.732L13.2576 23.7044C13.4375 22.6966 14.0533 21.73 14.9695 21.0174L19.309 17.429C20.2252 16.7164 21.3667 16.316 22.4825 16.316H24.9061L26.181 9.17399C26.361 8.16618 26.9767 7.19963 27.8929 6.487L34.8019 1.113C35.7181 0.400369 36.8597 4.62785e-06 37.9754 0H56.7842Z" fill="#1A1A1A"/>
<path d="M13.4549 0C14.5707 4.58276e-06 15.5693 0.400369 16.2311 1.113L21.2214 6.487C21.8832 7.19963 22.1539 8.16618 21.974 9.17399L21.2375 13.3C21.0501 14.3493 19.9565 15.2 18.7948 15.2H14.7757L16.1916 7.26799C16.3789 6.21865 15.589 5.36799 14.4273 5.36799H5.82514L6.78338 0H13.4549Z" fill="#383E40"/>
<path d="M13.4549 0C14.5707 4.58276e-06 15.5693 0.400369 16.2311 1.113L21.2214 6.487C21.8832 7.19963 22.1539 8.16618 21.974 9.17399L21.2375 13.3C21.0501 14.3493 19.9565 15.2 18.7948 15.2H14.7757L16.1916 7.26799C16.3789 6.21865 15.589 5.36799 14.4273 5.36799H5.82514L6.78338 0H13.4549Z" fill="#303446"/>
<path d="M13.4549 0C14.5707 4.58276e-06 15.5693 0.400369 16.2311 1.113L21.2214 6.487C21.8832 7.19963 22.1539 8.16618 21.974 9.17399L21.2375 13.3C21.0501 14.3493 19.9565 15.2 18.7948 15.2H14.7757L16.1916 7.26799C16.3789 6.21865 15.589 5.36799 14.4273 5.36799H5.82514L6.78338 0H13.4549Z" fill="#1A1A1A"/>
</svg>
