<svg width="24" height="24" viewBox="0 0 24 24" fill="none" xmlns="http://www.w3.org/2000/svg">
<g opacity="0.6">
<path d="M21 3C22.6569 3 24 4.34315 24 6V18C24 19.6569 22.6569 21 21 21H3C1.34315 21 0 19.6569 0 18V6C0 4.34315 1.34315 3 3 3H21ZM12.6328 15.7744L12 16.292L11.3672 15.7744L2 8.11035V18C2 18.5523 2.44772 19 3 19H21C21.5523 19 22 18.5523 22 18V8.11035L12.6328 15.7744ZM3 5C2.59158 5 2.24023 5.24479 2.08496 5.5957L12 13.707L21.9141 5.5957C21.7587 5.24498 21.4083 5 21 5H3Z" fill="#383E40"/>
<path d="M21 3C22.6569 3 24 4.34315 24 6V18C24 19.6569 22.6569 21 21 21H3C1.34315 21 0 19.6569 0 18V6C0 4.34315 1.34315 3 3 3H21ZM12.6328 15.7744L12 16.292L11.3672 15.7744L2 8.11035V18C2 18.5523 2.44772 19 3 19H21C21.5523 19 22 18.5523 22 18V8.11035L12.6328 15.7744ZM3 5C2.59158 5 2.24023 5.24479 2.08496 5.5957L12 13.707L21.9141 5.5957C21.7587 5.24498 21.4083 5 21 5H3Z" fill="#303446"/>
<path d="M21 3C22.6569 3 24 4.34315 24 6V18C24 19.6569 22.6569 21 21 21H3C1.34315 21 0 19.6569 0 18V6C0 4.34315 1.34315 3 3 3H21ZM12.6328 15.7744L12 16.292L11.3672 15.7744L2 8.11035V18C2 18.5523 2.44772 19 3 19H21C21.5523 19 22 18.5523 22 18V8.11035L12.6328 15.7744ZM3 5C2.59158 5 2.24023 5.24479 2.08496 5.5957L12 13.707L21.9141 5.5957C21.7587 5.24498 21.4083 5 21 5H3Z" fill="#1A1A1A"/>
</g>
</svg>
