<svg width="24" height="24" viewBox="0 0 24 24" fill="none" xmlns="http://www.w3.org/2000/svg">
<path d="M6.24121 2.23535C6.48291 2.10617 6.89766 1.93141 7.36914 2.02734C7.59924 2.07405 7.78053 2.17968 7.88867 2.25195C8.00895 2.33237 8.12029 2.42577 8.21777 2.5166C8.41334 2.69889 8.6166 2.92794 8.8125 3.17188C9.2073 3.6635 9.63663 4.29466 10.0137 4.93262C10.3873 5.56478 10.735 6.24785 10.9434 6.84277C11.0455 7.13446 11.1347 7.46078 11.1533 7.77637C11.1694 8.0496 11.1472 8.59478 10.7002 8.98633C10.4614 9.19534 10.1037 9.49106 9.76855 9.80566C9.60395 9.9602 9.47269 10.0941 9.38672 10.1963C9.3853 10.198 9.38325 10.1996 9.38184 10.2012C9.34647 11.0267 9.86481 12.1594 10.8418 13.1436C11.818 14.1268 12.9479 14.654 13.7949 14.6162C13.7968 14.6148 13.7999 14.6139 13.8018 14.6123C13.9039 14.5262 14.0379 14.3951 14.1924 14.2305C14.5071 13.895 14.8027 13.5367 15.0117 13.2979L15.0869 13.2197C15.4703 12.8492 15.9653 12.8307 16.2217 12.8457C16.5372 12.8643 16.8637 12.9527 17.1553 13.0547C17.7504 13.2629 18.4341 13.6108 19.0664 13.9844C19.7045 14.3614 20.3355 14.7916 20.8271 15.1865C21.0711 15.3825 21.3001 15.5856 21.4824 15.7812C21.5733 15.8789 21.6676 15.9899 21.748 16.1104C21.8197 16.2177 21.9236 16.3967 21.9707 16.624C22.0693 17.098 21.8932 17.5155 21.7637 17.7578C21.6178 18.0306 21.4142 18.2951 21.2031 18.5342C20.7769 19.0168 20.2022 19.5271 19.623 19.9883C19.0383 20.4539 18.417 20.894 17.8789 21.2354C17.6105 21.4056 17.3537 21.5576 17.126 21.6768C16.9194 21.7849 16.6662 21.904 16.4297 21.9609L16.3428 21.9824L16.2529 21.9873C12.9339 22.1741 9.29272 20.096 6.59473 17.3945C3.8969 14.6931 1.82562 11.0513 2.01172 7.74609L2.0166 7.65625L2.03809 7.56836C2.09503 7.33198 2.21417 7.07966 2.32227 6.87305C2.44148 6.64524 2.59242 6.38761 2.7627 6.11914C3.104 5.58106 3.54522 4.96058 4.01074 4.37598C4.47197 3.79679 4.98216 3.22214 5.46484 2.7959C5.70397 2.58476 5.96833 2.38128 6.24121 2.23535ZM6.78809 4.29492C6.42944 4.61167 6.00212 5.08595 5.5752 5.62207C5.15259 6.15279 4.75368 6.71507 4.45215 7.19043C4.30123 7.42838 4.17973 7.63646 4.09375 7.80078C4.04885 7.88661 4.02077 7.94768 4.00391 7.98633C3.92541 10.4442 5.52889 13.4962 8.00977 15.9805C10.4904 18.4644 13.5418 20.073 16.0117 19.9941C16.0504 19.9773 16.1122 19.9503 16.1982 19.9053C16.3625 19.8193 16.5698 19.6977 16.8076 19.5469C17.283 19.2453 17.8461 18.8465 18.377 18.4238C18.9133 17.9968 19.3873 17.5686 19.7041 17.21C19.7726 17.1323 19.8279 17.0624 19.873 17.0029C19.7922 16.9284 19.693 16.8415 19.5742 16.7461C19.1698 16.4213 18.6204 16.0448 18.0488 15.707C17.4717 15.366 16.9156 15.0896 16.4951 14.9424C16.414 14.914 16.3444 14.895 16.2881 14.8799C16.1096 15.0879 15.8765 15.3587 15.6514 15.5986C15.4766 15.7849 15.2802 15.9822 15.0898 16.1426C14.9952 16.2222 14.8835 16.3083 14.7627 16.3818C14.6587 16.4451 14.4624 16.5535 14.2129 16.5869C12.4544 16.8214 10.6544 15.7942 9.42188 14.5527C8.19073 13.3125 7.18199 11.512 7.41211 9.78613C7.44534 9.53713 7.5528 9.34172 7.61621 9.2373C7.68992 9.11601 7.77656 9.00316 7.85645 8.9082C8.01683 8.71765 8.21422 8.52144 8.40039 8.34668C8.63992 8.12187 8.90938 7.88829 9.11719 7.70996C9.1021 7.65373 9.08397 7.58477 9.05566 7.50391C8.9085 7.08359 8.63305 6.52731 8.29199 5.9502C7.95427 5.37875 7.57766 4.82922 7.25293 4.4248C7.15764 4.30615 7.07062 4.20684 6.99609 4.12598C6.93647 4.17114 6.86587 4.22626 6.78809 4.29492Z" fill="black"/>
</svg>
