<svg width="16" height="16" viewBox="0 0 16 16" fill="none" xmlns="http://www.w3.org/2000/svg">
<path d="M12.21 0C13.8377 0 15.1572 1.31953 15.1572 2.94727C15.1572 4.57505 13.8377 5.89453 12.21 5.89453C11.4952 5.8944 10.8403 5.6392 10.3301 5.21582L5.84277 7.45898C5.87535 7.63446 5.89453 7.81509 5.89453 8C5.89453 8.18461 5.87525 8.36483 5.84277 8.54004L10.3291 10.7832C10.8394 10.3597 11.4951 10.1056 12.21 10.1055C13.8377 10.1055 15.1572 11.425 15.1572 13.0527C15.1571 14.6804 13.8377 16 12.21 16C10.5825 15.9997 9.26281 14.6802 9.2627 13.0527C9.2627 12.8679 9.2819 12.6871 9.31445 12.5117L4.82812 10.2686C4.31775 10.6922 3.6624 10.9473 2.94727 10.9473C1.31956 10.9472 5.56614e-05 9.6277 0 8C5.55326e-05 6.3723 1.31956 5.05279 2.94727 5.05273C3.66221 5.05273 4.3178 5.30704 4.82812 5.73047L9.31445 3.4873C9.28199 3.31212 9.2627 3.13185 9.2627 2.94727C9.26275 1.31972 10.5825 0.000305457 12.21 0ZM12.21 12.1055C11.687 12.1058 11.2628 12.5298 11.2627 13.0527C11.2628 13.5757 11.6871 13.9997 12.21 14C12.7331 14 13.1571 13.5759 13.1572 13.0527C13.1572 12.5296 12.7331 12.1055 12.21 12.1055ZM2.94727 7.05273C2.42413 7.05279 2.00006 7.47687 2 8C2.00006 8.52314 2.42413 8.94721 2.94727 8.94727C3.47045 8.94727 3.89448 8.52317 3.89453 8C3.89448 7.47683 3.47045 7.05273 2.94727 7.05273ZM12.21 2C11.687 2.00031 11.2628 2.42428 11.2627 2.94727C11.2627 3.47029 11.687 3.89423 12.21 3.89453C12.7332 3.89453 13.1572 3.47048 13.1572 2.94727C13.1572 2.4241 12.7331 2 12.21 2Z" fill="#3B2F3B"/>
<path d="M12.21 0C13.8377 0 15.1572 1.31953 15.1572 2.94727C15.1572 4.57505 13.8377 5.89453 12.21 5.89453C11.4952 5.8944 10.8403 5.6392 10.3301 5.21582L5.84277 7.45898C5.87535 7.63446 5.89453 7.81509 5.89453 8C5.89453 8.18461 5.87525 8.36483 5.84277 8.54004L10.3291 10.7832C10.8394 10.3597 11.4951 10.1056 12.21 10.1055C13.8377 10.1055 15.1572 11.425 15.1572 13.0527C15.1571 14.6804 13.8377 16 12.21 16C10.5825 15.9997 9.26281 14.6802 9.2627 13.0527C9.2627 12.8679 9.2819 12.6871 9.31445 12.5117L4.82812 10.2686C4.31775 10.6922 3.6624 10.9473 2.94727 10.9473C1.31956 10.9472 5.56614e-05 9.6277 0 8C5.55326e-05 6.3723 1.31956 5.05279 2.94727 5.05273C3.66221 5.05273 4.3178 5.30704 4.82812 5.73047L9.31445 3.4873C9.28199 3.31212 9.2627 3.13185 9.2627 2.94727C9.26275 1.31972 10.5825 0.000305457 12.21 0ZM12.21 12.1055C11.687 12.1058 11.2628 12.5298 11.2627 13.0527C11.2628 13.5757 11.6871 13.9997 12.21 14C12.7331 14 13.1571 13.5759 13.1572 13.0527C13.1572 12.5296 12.7331 12.1055 12.21 12.1055ZM2.94727 7.05273C2.42413 7.05279 2.00006 7.47687 2 8C2.00006 8.52314 2.42413 8.94721 2.94727 8.94727C3.47045 8.94727 3.89448 8.52317 3.89453 8C3.89448 7.47683 3.47045 7.05273 2.94727 7.05273ZM12.21 2C11.687 2.00031 11.2628 2.42428 11.2627 2.94727C11.2627 3.47029 11.687 3.89423 12.21 3.89453C12.7332 3.89453 13.1572 3.47048 13.1572 2.94727C13.1572 2.4241 12.7331 2 12.21 2Z" fill="#1A1A1A"/>
</svg>
