<svg width="16" height="16" viewBox="0 0 16 16" fill="none" xmlns="http://www.w3.org/2000/svg">
<g opacity="0.48">
<path d="M11.0195 10.9968L15 15M0.999999 6.92105C0.999999 10.1912 3.59993 12.8421 6.8071 12.8421C10.0143 12.8421 12.6142 10.1912 12.6142 6.92105C12.6142 3.65095 10.0143 1 6.8071 1C3.59993 1 0.999999 3.65095 0.999999 6.92105Z" stroke="#383E40" stroke-width="1.5"/>
<path d="M11.0195 10.9968L15 15M0.999999 6.92105C0.999999 10.1912 3.59993 12.8421 6.8071 12.8421C10.0143 12.8421 12.6142 10.1912 12.6142 6.92105C12.6142 3.65095 10.0143 1 6.8071 1C3.59993 1 0.999999 3.65095 0.999999 6.92105Z" stroke="#303446" stroke-width="1.5"/>
<path d="M11.0195 10.9968L15 15M0.999999 6.92105C0.999999 10.1912 3.59993 12.8421 6.8071 12.8421C10.0143 12.8421 12.6142 10.1912 12.6142 6.92105C12.6142 3.65095 10.0143 1 6.8071 1C3.59993 1 0.999999 3.65095 0.999999 6.92105Z" stroke="#1A1A1A" stroke-width="1.5"/>
</g>
</svg>
