<svg width="16" height="16" viewBox="0 0 16 16" fill="none" xmlns="http://www.w3.org/2000/svg">
<path d="M12.9932 10.9248L13.9512 9.96191L15.3691 11.3721L12.7178 14.0391L12.0127 14.748L11.3037 14.043L8.62207 11.376L10.0322 9.95801L10.9932 10.9131V2H12.9932V10.9248ZM4.71777 1.96094L7.36914 4.62793L5.95117 6.03809L4.99316 5.07422V14H2.99316V5.08594L2.03223 6.04199L0.62207 4.62402L3.30371 1.95703L4.0127 1.25195L4.71777 1.96094Z" fill="#383E40"/>
<path d="M12.9932 10.9248L13.9512 9.96191L15.3691 11.3721L12.7178 14.0391L12.0127 14.748L11.3037 14.043L8.62207 11.376L10.0322 9.95801L10.9932 10.9131V2H12.9932V10.9248ZM4.71777 1.96094L7.36914 4.62793L5.95117 6.03809L4.99316 5.07422V14H2.99316V5.08594L2.03223 6.04199L0.62207 4.62402L3.30371 1.95703L4.0127 1.25195L4.71777 1.96094Z" fill="#303446"/>
<path d="M12.9932 10.9248L13.9512 9.96191L15.3691 11.3721L12.7178 14.0391L12.0127 14.748L11.3037 14.043L8.62207 11.376L10.0322 9.95801L10.9932 10.9131V2H12.9932V10.9248ZM4.71777 1.96094L7.36914 4.62793L5.95117 6.03809L4.99316 5.07422V14H2.99316V5.08594L2.03223 6.04199L0.62207 4.62402L3.30371 1.95703L4.0127 1.25195L4.71777 1.96094Z" fill="#1A1A1A"/>
</svg>
