<svg display="none" xmlns="http://www.w3.org/2000/svg">
    <symbol id="arrow-left" viewBox="0 0 6 9">
        <path d="M4.56055 0.530273L1.06055 4.03027L4.56055 7.53027" stroke-width="1.5" />
        <path d="M4.56055 0.530273L1.06055 4.03027L4.56055 7.53027" stroke-width="1.5" />
        <path d="M4.56055 0.530273L1.06055 4.03027L4.56055 7.53027" stroke-width="1.5" />
    </symbol>

    <symbol id="arrow-right" viewBox="0 0 6 9">
        <path d="M0.530273 0.530273L4.03027 4.03027L0.530273 7.53027" stroke-width="1.5" />
        <path d="M0.530273 0.530273L4.03027 4.03027L0.530273 7.53027" stroke-width="1.5" />
        <path d="M0.530273 0.530273L4.03027 4.03027L0.530273 7.53027" stroke-width="1.5" />
    </symbol>

    <symbol id="close-icon" viewBox="0 0 12 12">
        <path d="M10.5 1.5L1.5 10.5M10.5 10.5L1.5 1.5" stroke-width="1.5" />
    </symbol>

    <symbol id="phone-icon" viewBox="0 0 12 12">
        <path
            d="M2.41515 0.00150856C2.59713 0.0383863 3.1917 1.04779 3.6671 1.91362C4.14225 2.77817 4.22394 2.90159 3.93468 3.15483C3.64538 3.40807 2.83318 4.06925 2.79894 4.3228C2.76527 4.57533 3.06133 5.91642 4.39855 7.25444C4.46099 7.31689 4.51651 7.37745 4.56456 7.4351C4.62309 7.48401 4.68465 7.53956 4.74718 7.60209C6.08431 8.93909 7.42533 9.23537 7.67784 9.2017C7.93048 9.16775 8.59155 8.35532 8.84484 8.06596C9.09816 7.77657 9.22299 7.85734 10.088 8.33354C10.9538 8.80893 11.9623 9.40272 11.9991 9.58549C12.0363 9.76692 11.3988 10.4056 10.5421 11.1373C9.6851 11.8692 9.14464 11.9996 9.14464 11.9996C9.11613 12.0011 6.44991 12.1323 3.18859 8.93315C3.18459 8.92995 3.17989 8.92738 3.17589 8.92338C3.15909 8.90737 3.14307 8.89039 3.12706 8.87358C3.11033 8.85685 3.09399 8.8405 3.07726 8.82377C3.07405 8.82057 3.0707 8.81606 3.06749 8.81206C-0.139369 5.54199 0.000236975 2.8716 0.00108648 2.856C0.00108648 2.856 0.131447 2.31555 0.863391 1.45854C1.59481 0.602154 2.23266 -0.035199 2.41515 0.00150856Z" />
    </symbol>

    <symbol id="chat-icon" viewBox="0 0 16 16">
        <path
            d="M7.6875 1C10.2318 1 11.9596 1.57971 13.0342 2.69434C14.1066 3.80706 14.3759 5.297 14.376 6.75C14.376 8.20306 14.1066 9.69294 13.0342 10.8057C11.9876 11.8912 10.3214 12.4677 7.88477 12.4971L7.64844 14.0996V14.1006C7.52922 14.9023 6.52682 15.1936 5.99414 14.5879L3.35449 11.584C1.4529 10.4949 1 8.61048 1 6.75C1.00004 5.29704 1.2695 3.80712 2.3418 2.69434C3.34892 1.64932 4.92987 1.07464 7.21973 1.00684L7.6875 1ZM7.25879 2.50586C5.18019 2.5678 4.04971 3.08389 3.42188 3.73535C2.75045 4.43222 2.50004 5.44196 2.5 6.75C2.5 8.43264 2.90512 9.64439 4.18848 10.333L4.30762 10.3975L4.39746 10.499L6.33691 12.7051L6.49414 11.6338L6.5918 10.9736L7.25879 10.9932L7.6875 11C10.042 11 11.2841 10.4596 11.9541 9.76465C12.6257 9.06778 12.876 8.058 12.876 6.75C12.8759 5.44211 12.6257 4.43225 11.9541 3.73535C11.2841 3.04039 10.0418 2.5 7.6875 2.5L7.25879 2.50586Z" />
    </symbol>

    <symbol id="mail-icon" viewBox="0 0 16 16">
        <path
            d="M13 2C14.6569 2 16 3.34315 16 5V11C16 12.6569 14.6569 14 13 14H3C1.34315 14 1.61064e-08 12.6569 0 11V5C0 3.34315 1.34315 2 3 2H13ZM8 10.2285L2 5.94238V11C2 11.5523 2.44772 12 3 12H13C13.5523 12 14 11.5523 14 11V5.94238L8 10.2285ZM3 4C2.91782 4 2.83813 4.0106 2.76172 4.0293L8 7.77148L13.2373 4.0293C13.1612 4.01075 13.0818 4 13 4H3Z" />
        <path
            d="M13 2C14.6569 2 16 3.34315 16 5V11C16 12.6569 14.6569 14 13 14H3C1.34315 14 1.61064e-08 12.6569 0 11V5C0 3.34315 1.34315 2 3 2H13ZM8 10.2285L2 5.94238V11C2 11.5523 2.44772 12 3 12H13C13.5523 12 14 11.5523 14 11V5.94238L8 10.2285ZM3 4C2.91782 4 2.83813 4.0106 2.76172 4.0293L8 7.77148L13.2373 4.0293C13.1612 4.01075 13.0818 4 13 4H3Z" />
        <path
            d="M13 2C14.6569 2 16 3.34315 16 5V11C16 12.6569 14.6569 14 13 14H3C1.34315 14 1.61064e-08 12.6569 0 11V5C0 3.34315 1.34315 2 3 2H13ZM8 10.2285L2 5.94238V11C2 11.5523 2.44772 12 3 12H13C13.5523 12 14 11.5523 14 11V5.94238L8 10.2285ZM3 4C2.91782 4 2.83813 4.0106 2.76172 4.0293L8 7.77148L13.2373 4.0293C13.1612 4.01075 13.0818 4 13 4H3Z" />
    </symbol>

    <symbol id="phone-icon2" viewBox="0 0 16 16">
        <path
            d="M2.58359 0.700308C2.93617 0.420836 3.41706 0.15185 3.983 0.284293C4.49795 0.405051 4.84542 0.81363 5.09043 1.16027C5.35391 1.53318 5.63552 2.0425 5.95761 2.62902C6.09647 2.88164 6.21843 3.09967 6.30918 3.27746C6.39638 3.44833 6.48457 3.63693 6.53281 3.82531C6.58677 4.03624 6.60178 4.29233 6.48984 4.55773C6.39085 4.79208 6.22439 4.95001 6.11582 5.04503C5.93744 5.20115 5.73475 5.37891 5.57285 5.53722C5.52293 5.58605 5.48372 5.62935 5.45273 5.6632C5.45591 5.96689 5.57895 6.39687 5.87363 6.92785C6.20511 7.52504 6.70384 8.16019 7.28476 8.73546C7.86556 9.31056 8.50518 9.80217 9.10117 10.129C9.62764 10.4177 10.0469 10.5358 10.3346 10.5421C10.3681 10.5113 10.4116 10.474 10.4596 10.4249C10.618 10.2629 10.7955 10.0595 10.9518 9.88097C11.0469 9.7723 11.2058 9.60693 11.44 9.50793C11.7051 9.39602 11.9612 9.41111 12.1725 9.46496C12.361 9.5131 12.5492 9.60132 12.7203 9.68859C12.8984 9.77947 13.1169 9.9 13.3697 10.0392H13.3687C13.951 10.3588 14.4599 10.6391 14.8326 10.9005C15.1785 11.1431 15.5876 11.487 15.7125 11.9991C15.8504 12.5655 15.5842 13.0489 15.3043 13.4044C15.0172 13.7688 14.5796 14.1717 14.0406 14.6319C12.2779 16.1368 10.2322 15.9264 8.48691 15.1446C6.75921 14.3706 5.18397 12.989 4.10996 11.8614V11.8605C3.04854 10.7977 1.66818 9.24059 0.881441 7.52941C0.0826488 5.79175 -0.158651 3.74297 1.36582 1.95812C1.82244 1.42356 2.22146 0.987405 2.58359 0.700308ZM3.51523 1.87609C3.28036 2.06236 2.96568 2.3951 2.50644 2.93273C1.50944 4.10015 1.5782 5.45369 2.24472 6.90343C2.92016 8.37235 4.15184 9.78234 5.1832 10.8136L5.19589 10.8263C6.21384 11.895 7.63065 13.1181 9.10019 13.7765C10.5523 14.4269 11.9121 14.4764 13.067 13.4903C13.6079 13.0284 13.9404 12.7117 14.1256 12.4767C14.1743 12.4149 14.2044 12.3684 14.2232 12.3361C14.1846 12.2959 14.111 12.226 13.9713 12.128C13.6809 11.9244 13.2551 11.6874 12.6471 11.3536H12.6461C12.3801 11.2072 12.1899 11.1017 12.0387 11.0245C12.0143 11.0121 11.9913 11.0021 11.9713 10.9923C11.8391 11.1427 11.6824 11.3208 11.5328 11.4737C11.4371 11.5717 11.3293 11.6752 11.2232 11.7609C11.1703 11.8036 11.1038 11.8534 11.0299 11.8966C10.9673 11.9331 10.8393 12.0013 10.6725 12.0236C9.91545 12.1243 9.09779 11.8383 8.37949 11.4444C7.63752 11.0375 6.88824 10.4536 6.2291 9.80089C5.57007 9.14826 4.97655 8.40214 4.56211 7.65539C4.15934 6.92964 3.86962 6.10256 3.97324 5.32531C3.99549 5.15869 4.0636 5.03062 4.10019 4.96789C4.14338 4.8939 4.19321 4.82847 4.23593 4.7755C4.32178 4.6691 4.4259 4.56093 4.52402 4.46496C4.67667 4.31568 4.85338 4.15839 5.00351 4.02648C4.99385 4.00671 4.9845 3.98406 4.97226 3.96007C4.89498 3.80865 4.79051 3.61797 4.64414 3.35168H4.64316C4.30762 2.74067 4.0691 2.31451 3.86484 2.0255C3.76675 1.88675 3.69769 1.81352 3.65781 1.7755C3.6252 1.79459 3.57814 1.82622 3.51523 1.87609Z"/>
    </symbol>

</svg>