<svg display="none" xmlns="http://www.w3.org/2000/svg">
    <symbol id="arrow-left" viewBox="0 0 6 9">
        <path d="M4.56055 0.530273L1.06055 4.03027L4.56055 7.53027" stroke-width="1.5" />
        <path d="M4.56055 0.530273L1.06055 4.03027L4.56055 7.53027" stroke-width="1.5" />
        <path d="M4.56055 0.530273L1.06055 4.03027L4.56055 7.53027" stroke-width="1.5" />
    </symbol>

    <symbol id="arrow-right" viewBox="0 0 6 9">
        <path d="M0.530273 0.530273L4.03027 4.03027L0.530273 7.53027" stroke-width="1.5" />
        <path d="M0.530273 0.530273L4.03027 4.03027L0.530273 7.53027" stroke-width="1.5" />
        <path d="M0.530273 0.530273L4.03027 4.03027L0.530273 7.53027" stroke-width="1.5" />
    </symbol>

    <symbol id="close-icon" viewBox="0 0 12 12">
        <path d="M10.5 1.5L1.5 10.5M10.5 10.5L1.5 1.5" stroke-width="1.5" />
    </symbol>

    <symbol id="phone-icon" viewBox="0 0 12 12">
        <path
            d="M2.41515 0.00150856C2.59713 0.0383863 3.1917 1.04779 3.6671 1.91362C4.14225 2.77817 4.22394 2.90159 3.93468 3.15483C3.64538 3.40807 2.83318 4.06925 2.79894 4.3228C2.76527 4.57533 3.06133 5.91642 4.39855 7.25444C4.46099 7.31689 4.51651 7.37745 4.56456 7.4351C4.62309 7.48401 4.68465 7.53956 4.74718 7.60209C6.08431 8.93909 7.42533 9.23537 7.67784 9.2017C7.93048 9.16775 8.59155 8.35532 8.84484 8.06596C9.09816 7.77657 9.22299 7.85734 10.088 8.33354C10.9538 8.80893 11.9623 9.40272 11.9991 9.58549C12.0363 9.76692 11.3988 10.4056 10.5421 11.1373C9.6851 11.8692 9.14464 11.9996 9.14464 11.9996C9.11613 12.0011 6.44991 12.1323 3.18859 8.93315C3.18459 8.92995 3.17989 8.92738 3.17589 8.92338C3.15909 8.90737 3.14307 8.89039 3.12706 8.87358C3.11033 8.85685 3.09399 8.8405 3.07726 8.82377C3.07405 8.82057 3.0707 8.81606 3.06749 8.81206C-0.139369 5.54199 0.000236975 2.8716 0.00108648 2.856C0.00108648 2.856 0.131447 2.31555 0.863391 1.45854C1.59481 0.602154 2.23266 -0.035199 2.41515 0.00150856Z" />
    </symbol>

    <symbol id="chat-icon" viewBox="0 0 16 16">
        <path
            d="M7.6875 1C10.2318 1 11.9596 1.57971 13.0342 2.69434C14.1066 3.80706 14.3759 5.297 14.376 6.75C14.376 8.20306 14.1066 9.69294 13.0342 10.8057C11.9876 11.8912 10.3214 12.4677 7.88477 12.4971L7.64844 14.0996V14.1006C7.52922 14.9023 6.52682 15.1936 5.99414 14.5879L3.35449 11.584C1.4529 10.4949 1 8.61048 1 6.75C1.00004 5.29704 1.2695 3.80712 2.3418 2.69434C3.34892 1.64932 4.92987 1.07464 7.21973 1.00684L7.6875 1ZM7.25879 2.50586C5.18019 2.5678 4.04971 3.08389 3.42188 3.73535C2.75045 4.43222 2.50004 5.44196 2.5 6.75C2.5 8.43264 2.90512 9.64439 4.18848 10.333L4.30762 10.3975L4.39746 10.499L6.33691 12.7051L6.49414 11.6338L6.5918 10.9736L7.25879 10.9932L7.6875 11C10.042 11 11.2841 10.4596 11.9541 9.76465C12.6257 9.06778 12.876 8.058 12.876 6.75C12.8759 5.44211 12.6257 4.43225 11.9541 3.73535C11.2841 3.04039 10.0418 2.5 7.6875 2.5L7.25879 2.50586Z" />
    </symbol>

    <symbol id="mail-icon" viewBox="0 0 16 16">
        <path
            d="M13 2C14.6569 2 16 3.34315 16 5V11C16 12.6569 14.6569 14 13 14H3C1.34315 14 1.61064e-08 12.6569 0 11V5C0 3.34315 1.34315 2 3 2H13ZM8 10.2285L2 5.94238V11C2 11.5523 2.44772 12 3 12H13C13.5523 12 14 11.5523 14 11V5.94238L8 10.2285ZM3 4C2.91782 4 2.83813 4.0106 2.76172 4.0293L8 7.77148L13.2373 4.0293C13.1612 4.01075 13.0818 4 13 4H3Z"/>
        <path
            d="M13 2C14.6569 2 16 3.34315 16 5V11C16 12.6569 14.6569 14 13 14H3C1.34315 14 1.61064e-08 12.6569 0 11V5C0 3.34315 1.34315 2 3 2H13ZM8 10.2285L2 5.94238V11C2 11.5523 2.44772 12 3 12H13C13.5523 12 14 11.5523 14 11V5.94238L8 10.2285ZM3 4C2.91782 4 2.83813 4.0106 2.76172 4.0293L8 7.77148L13.2373 4.0293C13.1612 4.01075 13.0818 4 13 4H3Z"/>
        <path
            d="M13 2C14.6569 2 16 3.34315 16 5V11C16 12.6569 14.6569 14 13 14H3C1.34315 14 1.61064e-08 12.6569 0 11V5C0 3.34315 1.34315 2 3 2H13ZM8 10.2285L2 5.94238V11C2 11.5523 2.44772 12 3 12H13C13.5523 12 14 11.5523 14 11V5.94238L8 10.2285ZM3 4C2.91782 4 2.83813 4.0106 2.76172 4.0293L8 7.77148L13.2373 4.0293C13.1612 4.01075 13.0818 4 13 4H3Z"/>
    </symbol>


</svg>