<svg display="none" xmlns="http://www.w3.org/2000/svg">
    <symbol id="arrow-left" viewBox="0 0 6 9">
        <path d="M4.56055 0.530273L1.06055 4.03027L4.56055 7.53027" stroke-width="1.5" />
        <path d="M4.56055 0.530273L1.06055 4.03027L4.56055 7.53027" stroke-width="1.5" />
        <path d="M4.56055 0.530273L1.06055 4.03027L4.56055 7.53027" stroke-width="1.5" />
    </symbol>

    <symbol id="arrow-right" viewBox="0 0 6 9">
        <path d="M0.530273 0.530273L4.03027 4.03027L0.530273 7.53027" stroke-width="1.5" />
        <path d="M0.530273 0.530273L4.03027 4.03027L0.530273 7.53027" stroke-width="1.5" />
        <path d="M0.530273 0.530273L4.03027 4.03027L0.530273 7.53027" stroke-width="1.5" />
    </symbol>

    <symbol id="close-icon" viewBox="0 0 12 12">
        <path d="M10.5 1.5L1.5 10.5M10.5 10.5L1.5 1.5" stroke-width="1.5" />
    </symbol>

    <symbol id="phone-icon" viewBox="0 0 12 12">
        <path
            d="M2.41515 0.00150856C2.59713 0.0383863 3.1917 1.04779 3.6671 1.91362C4.14225 2.77817 4.22394 2.90159 3.93468 3.15483C3.64538 3.40807 2.83318 4.06925 2.79894 4.3228C2.76527 4.57533 3.06133 5.91642 4.39855 7.25444C4.46099 7.31689 4.51651 7.37745 4.56456 7.4351C4.62309 7.48401 4.68465 7.53956 4.74718 7.60209C6.08431 8.93909 7.42533 9.23537 7.67784 9.2017C7.93048 9.16775 8.59155 8.35532 8.84484 8.06596C9.09816 7.77657 9.22299 7.85734 10.088 8.33354C10.9538 8.80893 11.9623 9.40272 11.9991 9.58549C12.0363 9.76692 11.3988 10.4056 10.5421 11.1373C9.6851 11.8692 9.14464 11.9996 9.14464 11.9996C9.11613 12.0011 6.44991 12.1323 3.18859 8.93315C3.18459 8.92995 3.17989 8.92738 3.17589 8.92338C3.15909 8.90737 3.14307 8.89039 3.12706 8.87358C3.11033 8.85685 3.09399 8.8405 3.07726 8.82377C3.07405 8.82057 3.0707 8.81606 3.06749 8.81206C-0.139369 5.54199 0.000236975 2.8716 0.00108648 2.856C0.00108648 2.856 0.131447 2.31555 0.863391 1.45854C1.59481 0.602154 2.23266 -0.035199 2.41515 0.00150856Z"/>
    </symbol>

</svg>