<svg width="16" height="16" viewBox="0 0 16 16" fill="none" xmlns="http://www.w3.org/2000/svg">
<path d="M8 0.5L10.22 5.77981L16 6.22949L11.592 9.94227L12.9443 15.5L8 12.5148L3.05573 15.5L4.408 9.94227L0 6.22949L5.78002 5.77981L8 0.5Z" fill="#383E40"/>
<path d="M8 0.5L10.22 5.77981L16 6.22949L11.592 9.94227L12.9443 15.5L8 12.5148L3.05573 15.5L4.408 9.94227L0 6.22949L5.78002 5.77981L8 0.5Z" fill="#303446"/>
<path d="M8 0.5L10.22 5.77981L16 6.22949L11.592 9.94227L12.9443 15.5L8 12.5148L3.05573 15.5L4.408 9.94227L0 6.22949L5.78002 5.77981L8 0.5Z" fill="#1A1A1A"/>
</svg>
