<svg width="80" height="80" viewBox="0 0 80 80" fill="none" xmlns="http://www.w3.org/2000/svg">
<path d="M40 8C57.6725 8 72 22.3277 72 39.9979C72 57.6723 57.6725 72 40 72C22.3275 72 8 57.6723 8 39.9979C8 22.3277 22.3275 8 40 8Z" fill="#383E40"/>
<path d="M40 8C57.6725 8 72 22.3277 72 39.9979C72 57.6723 57.6725 72 40 72C22.3275 72 8 57.6723 8 39.9979C8 22.3277 22.3275 8 40 8Z" fill="#303446"/>
<path d="M40 8C57.6725 8 72 22.3277 72 39.9979C72 57.6723 57.6725 72 40 72C22.3275 72 8 57.6723 8 39.9979C8 22.3277 22.3275 8 40 8Z" fill="#1A1A1A"/>
<path d="M56 34L38 50L26 40.8121" stroke="white" stroke-width="6" stroke-linecap="square"/>
</svg>
