<svg width="16" height="16" viewBox="0 0 16 16" fill="none" xmlns="http://www.w3.org/2000/svg">
<path d="M8 10.25C9.51055 10.25 10.6847 10.3224 11.5928 10.4873C12.4961 10.6514 13.2091 10.9194 13.7295 11.3652C14.2719 11.83 14.5227 12.4163 14.6396 13.0381C14.7508 13.6291 14.75 14.3108 14.75 15C14.75 15.4142 14.4142 15.75 14 15.75C13.5858 15.75 13.25 15.4142 13.25 15C13.25 14.2691 13.246 13.7407 13.166 13.3154C13.0918 12.921 12.9633 12.6851 12.7529 12.5049C12.5205 12.3058 12.1069 12.1059 11.3252 11.9639C10.548 11.8227 9.47762 11.75 8 11.75C6.52231 11.75 5.45203 11.8227 4.6748 11.9639C3.893 12.1059 3.47853 12.3048 3.24609 12.5039C3.03579 12.6841 2.90815 12.921 2.83398 13.3154C2.75405 13.7407 2.75 14.2691 2.75 15C2.75 15.4142 2.41421 15.75 2 15.75C1.58579 15.75 1.25 15.4142 1.25 15C1.25 14.3108 1.24922 13.6291 1.36035 13.0381C1.47728 12.4163 1.72806 11.83 2.27051 11.3652C2.79092 10.9194 3.50389 10.6514 4.40723 10.4873C5.31525 10.3224 6.4895 10.25 8 10.25ZM8 0.25C10.6232 0.25 12.75 2.37652 12.75 5C12.75 7.62348 10.6232 9.75 8 9.75C5.37651 9.75 3.25 7.62345 3.25 5C3.25 2.37655 5.37651 0.25 8 0.25ZM8 1.75C6.20495 1.75 4.75 3.20497 4.75 5C4.75 6.79503 6.20495 8.25 8 8.25C9.79483 8.25 11.25 6.795 11.25 5C11.25 3.205 9.79483 1.75 8 1.75Z" fill="#383E40"/>
<path d="M8 10.25C9.51055 10.25 10.6847 10.3224 11.5928 10.4873C12.4961 10.6514 13.2091 10.9194 13.7295 11.3652C14.2719 11.83 14.5227 12.4163 14.6396 13.0381C14.7508 13.6291 14.75 14.3108 14.75 15C14.75 15.4142 14.4142 15.75 14 15.75C13.5858 15.75 13.25 15.4142 13.25 15C13.25 14.2691 13.246 13.7407 13.166 13.3154C13.0918 12.921 12.9633 12.6851 12.7529 12.5049C12.5205 12.3058 12.1069 12.1059 11.3252 11.9639C10.548 11.8227 9.47762 11.75 8 11.75C6.52231 11.75 5.45203 11.8227 4.6748 11.9639C3.893 12.1059 3.47853 12.3048 3.24609 12.5039C3.03579 12.6841 2.90815 12.921 2.83398 13.3154C2.75405 13.7407 2.75 14.2691 2.75 15C2.75 15.4142 2.41421 15.75 2 15.75C1.58579 15.75 1.25 15.4142 1.25 15C1.25 14.3108 1.24922 13.6291 1.36035 13.0381C1.47728 12.4163 1.72806 11.83 2.27051 11.3652C2.79092 10.9194 3.50389 10.6514 4.40723 10.4873C5.31525 10.3224 6.4895 10.25 8 10.25ZM8 0.25C10.6232 0.25 12.75 2.37652 12.75 5C12.75 7.62348 10.6232 9.75 8 9.75C5.37651 9.75 3.25 7.62345 3.25 5C3.25 2.37655 5.37651 0.25 8 0.25ZM8 1.75C6.20495 1.75 4.75 3.20497 4.75 5C4.75 6.79503 6.20495 8.25 8 8.25C9.79483 8.25 11.25 6.795 11.25 5C11.25 3.205 9.79483 1.75 8 1.75Z" fill="#303446"/>
<path d="M8 10.25C9.51055 10.25 10.6847 10.3224 11.5928 10.4873C12.4961 10.6514 13.2091 10.9194 13.7295 11.3652C14.2719 11.83 14.5227 12.4163 14.6396 13.0381C14.7508 13.6291 14.75 14.3108 14.75 15C14.75 15.4142 14.4142 15.75 14 15.75C13.5858 15.75 13.25 15.4142 13.25 15C13.25 14.2691 13.246 13.7407 13.166 13.3154C13.0918 12.921 12.9633 12.6851 12.7529 12.5049C12.5205 12.3058 12.1069 12.1059 11.3252 11.9639C10.548 11.8227 9.47762 11.75 8 11.75C6.52231 11.75 5.45203 11.8227 4.6748 11.9639C3.893 12.1059 3.47853 12.3048 3.24609 12.5039C3.03579 12.6841 2.90815 12.921 2.83398 13.3154C2.75405 13.7407 2.75 14.2691 2.75 15C2.75 15.4142 2.41421 15.75 2 15.75C1.58579 15.75 1.25 15.4142 1.25 15C1.25 14.3108 1.24922 13.6291 1.36035 13.0381C1.47728 12.4163 1.72806 11.83 2.27051 11.3652C2.79092 10.9194 3.50389 10.6514 4.40723 10.4873C5.31525 10.3224 6.4895 10.25 8 10.25ZM8 0.25C10.6232 0.25 12.75 2.37652 12.75 5C12.75 7.62348 10.6232 9.75 8 9.75C5.37651 9.75 3.25 7.62345 3.25 5C3.25 2.37655 5.37651 0.25 8 0.25ZM8 1.75C6.20495 1.75 4.75 3.20497 4.75 5C4.75 6.79503 6.20495 8.25 8 8.25C9.79483 8.25 11.25 6.795 11.25 5C11.25 3.205 9.79483 1.75 8 1.75Z" fill="#1A1A1A"/>
</svg>
