<svg width="32" height="32" viewBox="0 0 32 32" fill="none" xmlns="http://www.w3.org/2000/svg">
<path d="M16 21C19.2549 21 21.7427 21.1269 23.6396 21.4053C25.5232 21.6817 26.9225 22.1201 27.9248 22.8135C28.978 23.5421 29.5102 24.4936 29.7637 25.582C30.0021 26.6061 30 27.7911 30 29C30 29.5523 29.5523 30 29 30C28.4477 30 28 29.5523 28 29C28 27.7235 27.9911 26.7906 27.8154 26.0361C27.6548 25.3462 27.3651 24.8579 26.7871 24.458C26.1581 24.0228 25.1163 23.6432 23.3486 23.3838C21.5942 23.1264 19.2194 23 16 23C12.7802 23 10.4049 23.1263 8.65039 23.3838C6.88294 23.6431 5.84186 24.0229 5.21289 24.458C4.63494 24.8579 4.3452 25.3461 4.18457 26.0361C4.00895 26.7906 4 27.7234 4 29C4 29.5523 3.55228 30 3 30C2.44772 30 2 29.5523 2 29C2 27.7912 1.99793 26.6061 2.23633 25.582C2.48978 24.4937 3.02206 23.5421 4.0752 22.8135C5.07743 22.1202 6.47682 21.6817 8.36035 21.4053C10.2573 21.1269 12.7451 21 16 21ZM16 2C20.9703 2 25 6.0292 25 11C25 15.9708 20.9703 20 16 20C11.0292 20 7 15.9708 7 11C7 6.02924 11.0292 2 16 2ZM16 4C12.1337 4 9 7.1338 9 11C9 14.8662 12.1337 18 16 18C19.8658 18 23 14.8662 23 11C23 7.13384 19.8658 4 16 4Z" fill="#383E40"/>
<path d="M16 21C19.2549 21 21.7427 21.1269 23.6396 21.4053C25.5232 21.6817 26.9225 22.1201 27.9248 22.8135C28.978 23.5421 29.5102 24.4936 29.7637 25.582C30.0021 26.6061 30 27.7911 30 29C30 29.5523 29.5523 30 29 30C28.4477 30 28 29.5523 28 29C28 27.7235 27.9911 26.7906 27.8154 26.0361C27.6548 25.3462 27.3651 24.8579 26.7871 24.458C26.1581 24.0228 25.1163 23.6432 23.3486 23.3838C21.5942 23.1264 19.2194 23 16 23C12.7802 23 10.4049 23.1263 8.65039 23.3838C6.88294 23.6431 5.84186 24.0229 5.21289 24.458C4.63494 24.8579 4.3452 25.3461 4.18457 26.0361C4.00895 26.7906 4 27.7234 4 29C4 29.5523 3.55228 30 3 30C2.44772 30 2 29.5523 2 29C2 27.7912 1.99793 26.6061 2.23633 25.582C2.48978 24.4937 3.02206 23.5421 4.0752 22.8135C5.07743 22.1202 6.47682 21.6817 8.36035 21.4053C10.2573 21.1269 12.7451 21 16 21ZM16 2C20.9703 2 25 6.0292 25 11C25 15.9708 20.9703 20 16 20C11.0292 20 7 15.9708 7 11C7 6.02924 11.0292 2 16 2ZM16 4C12.1337 4 9 7.1338 9 11C9 14.8662 12.1337 18 16 18C19.8658 18 23 14.8662 23 11C23 7.13384 19.8658 4 16 4Z" fill="#303446"/>
<path d="M16 21C19.2549 21 21.7427 21.1269 23.6396 21.4053C25.5232 21.6817 26.9225 22.1201 27.9248 22.8135C28.978 23.5421 29.5102 24.4936 29.7637 25.582C30.0021 26.6061 30 27.7911 30 29C30 29.5523 29.5523 30 29 30C28.4477 30 28 29.5523 28 29C28 27.7235 27.9911 26.7906 27.8154 26.0361C27.6548 25.3462 27.3651 24.8579 26.7871 24.458C26.1581 24.0228 25.1163 23.6432 23.3486 23.3838C21.5942 23.1264 19.2194 23 16 23C12.7802 23 10.4049 23.1263 8.65039 23.3838C6.88294 23.6431 5.84186 24.0229 5.21289 24.458C4.63494 24.8579 4.3452 25.3461 4.18457 26.0361C4.00895 26.7906 4 27.7234 4 29C4 29.5523 3.55228 30 3 30C2.44772 30 2 29.5523 2 29C2 27.7912 1.99793 26.6061 2.23633 25.582C2.48978 24.4937 3.02206 23.5421 4.0752 22.8135C5.07743 22.1202 6.47682 21.6817 8.36035 21.4053C10.2573 21.1269 12.7451 21 16 21ZM16 2C20.9703 2 25 6.0292 25 11C25 15.9708 20.9703 20 16 20C11.0292 20 7 15.9708 7 11C7 6.02924 11.0292 2 16 2ZM16 4C12.1337 4 9 7.1338 9 11C9 14.8662 12.1337 18 16 18C19.8658 18 23 14.8662 23 11C23 7.13384 19.8658 4 16 4Z" fill="#1A1A1A"/>
</svg>
